<svg width="425" height="315" viewBox="0 0 425 315" fill="none" xmlns="http://www.w3.org/2000/svg">
<path d="M344.846 142.321H209.814C206.014 142.321 202.934 139.241 202.934 135.441V6.87957C202.934 3.08002 206.014 0 209.814 0H344.846C348.645 0 351.725 3.08002 351.725 6.87957V135.441C351.725 139.242 348.645 142.321 344.846 142.321Z" fill="#6277D7"/>
<path d="M287.593 20.6014H223.523C222.383 20.6014 221.459 19.6769 221.459 18.5365C221.459 17.3961 222.383 16.4718 223.523 16.4718H287.593C288.734 16.4718 289.658 17.3961 289.658 18.5365C289.658 19.6769 288.734 20.6014 287.593 20.6014Z" fill="#E1E9FF"/>
<path d="M266.996 30.9028H223.523C222.383 30.9028 221.459 29.9785 221.459 28.8381C221.459 27.6977 222.383 26.7732 223.523 26.7732H266.996C268.137 26.7732 269.061 27.6977 269.061 28.8381C269.061 29.9785 268.137 30.9028 266.996 30.9028Z" fill="#E1E9FF"/>
<path d="M234.383 47.7804H222.933C222.119 47.7804 221.459 47.1204 221.459 46.3057C221.459 45.491 222.119 44.8309 222.933 44.8309H234.383C235.198 44.8309 235.858 45.491 235.858 46.3057C235.858 47.1204 235.198 47.7804 234.383 47.7804Z" fill="#89AEFF"/>
<path d="M239.366 95.1832V131.986C239.366 132.8 238.706 133.461 237.891 133.461H231.933C231.118 133.461 230.458 132.8 230.458 131.986V95.1832C230.458 94.3686 231.118 93.7085 231.933 93.7085H237.891C238.706 93.7085 239.366 94.3694 239.366 95.1832Z" fill="#89AEFF"/>
<path d="M255.559 80.398V131.986C255.559 132.8 254.899 133.461 254.084 133.461H248.126C247.311 133.461 246.651 132.8 246.651 131.986V80.398C246.651 79.5833 247.311 78.9232 248.126 78.9232H254.084C254.899 78.9232 255.559 79.5833 255.559 80.398Z" fill="#89AEFF"/>
<path d="M275.059 95.1832V131.986C275.059 132.8 274.399 133.461 273.585 133.461H267.626C266.811 133.461 266.151 132.8 266.151 131.986V95.1832C266.151 94.3686 266.811 93.7085 267.626 93.7085H273.585C274.399 93.7085 275.059 94.3694 275.059 95.1832Z" fill="#89AEFF"/>
<path d="M291.251 80.398V131.986C291.251 132.8 290.591 133.461 289.776 133.461H283.818C283.003 133.461 282.343 132.8 282.343 131.986V80.398C282.343 79.5833 283.003 78.9232 283.818 78.9232H289.776C290.591 78.9232 291.251 79.5833 291.251 80.398Z" fill="#89AEFF"/>
<path d="M310.752 105.961V131.987C310.752 132.801 310.092 133.461 309.277 133.461H303.318C302.504 133.461 301.844 132.801 301.844 131.987V105.961C301.844 105.146 302.504 104.486 303.318 104.486H309.277C310.092 104.486 310.752 105.146 310.752 105.961Z" fill="#89AEFF"/>
<path d="M326.944 95.1832V131.986C326.944 132.8 326.284 133.461 325.469 133.461H319.511C318.696 133.461 318.036 132.8 318.036 131.986V95.1832C318.036 94.3686 318.696 93.7085 319.511 93.7085H325.469C326.284 93.7085 326.944 94.3694 326.944 95.1832Z" fill="#89AEFF"/>
<path d="M239.366 108.776V131.987C239.366 132.801 238.706 133.461 237.891 133.461H231.933C231.118 133.461 230.458 132.801 230.458 131.987V108.776C230.458 107.962 231.118 107.302 231.933 107.302H237.891C238.706 107.302 239.366 107.962 239.366 108.776Z" fill="#D2DCFF"/>
<path d="M255.559 99.0467V131.987C255.559 132.801 254.899 133.461 254.084 133.461H248.126C247.311 133.461 246.651 132.801 246.651 131.987V99.0467C246.651 98.232 247.311 97.5721 248.126 97.5721H254.084C254.899 97.5721 255.559 98.232 255.559 99.0467Z" fill="#D2DCFF"/>
<path d="M275.059 108.776V131.987C275.059 132.801 274.399 133.461 273.585 133.461H267.626C266.811 133.461 266.151 132.801 266.151 131.987V108.776C266.151 107.962 266.811 107.302 267.626 107.302H273.585C274.399 107.302 275.059 107.962 275.059 108.776Z" fill="#D2DCFF"/>
<path d="M291.251 99.0467V131.987C291.251 132.801 290.591 133.461 289.776 133.461H283.818C283.003 133.461 282.343 132.801 282.343 131.987V99.0467C282.343 98.232 283.003 97.5721 283.818 97.5721H289.776C290.591 97.5721 291.251 98.232 291.251 99.0467Z" fill="#D2DCFF"/>
<path d="M310.752 115.868V131.986C310.752 132.8 310.092 133.46 309.277 133.46H303.318C302.504 133.46 301.844 132.8 301.844 131.986V115.868C301.844 115.054 302.504 114.394 303.318 114.394H309.277C310.092 114.394 310.752 115.054 310.752 115.868Z" fill="#D2DCFF"/>
<path d="M326.944 108.776V131.986C326.944 132.8 326.284 133.461 325.469 133.461H319.511C318.696 133.461 318.036 132.8 318.036 131.986V108.776C318.036 107.962 318.696 107.302 319.511 107.302H325.469C326.283 107.302 326.944 107.962 326.944 108.776Z" fill="#D2DCFF"/>
<path d="M314.002 241.633L322.852 315H325.754L316.904 241.633H314.002Z" fill="#D2DCFF"/>
<path d="M353.109 241.632L354.104 249.883L361.958 314.999H364.861L356.968 249.56L356.012 241.632H353.109Z" fill="#D2DCFF"/>
<path d="M314.002 314.999H316.904L318.128 304.852L319.579 292.821L324.352 253.247L325.754 241.632H322.851L321.41 253.579L318.128 280.789L316.677 292.82L314.002 314.999Z" fill="#D2DCFF"/>
<path d="M274.894 314.999H277.797L284.665 258.053H284.666L286.646 241.632H283.744L281.725 258.371L274.894 314.999Z" fill="#D2DCFF"/>
<path d="M355.87 192.588H352.967V236.967H355.87V192.588Z" fill="#D2DCFF"/>
<path d="M316.43 192.588H313.528V236.967H316.43V192.588Z" fill="#D2DCFF"/>
<path d="M282.525 236.967H322.403C321.115 236.967 320.071 238.011 320.071 239.299C320.071 240.587 321.115 241.632 322.403 241.632H282.525C281.237 241.632 280.193 240.587 280.193 239.299C280.193 238.011 281.237 236.967 282.525 236.967Z" fill="#D2DCFF"/>
<path d="M320.071 239.299C320.071 238.011 321.115 236.967 322.403 236.967H352.906H356.835C358.123 236.967 359.168 238.011 359.168 239.299C359.168 240.587 358.123 241.632 356.835 241.632H352.906H322.403C321.115 241.632 320.071 240.587 320.071 239.299Z" fill="#86A2E2"/>
<path d="M311.157 159.189H358.242C360.037 159.189 361.493 160.645 361.493 162.439V189.336C361.493 191.132 360.037 192.588 358.242 192.588H311.157C309.362 192.588 307.906 191.132 307.906 189.336V162.439C307.906 160.644 309.361 159.189 311.157 159.189Z" fill="#D2DCFF"/>
<path d="M353.109 241.632L354.104 249.883C355.153 249.765 356.111 249.657 356.967 249.561L356.011 241.632H353.109Z" fill="#AEC3FF"/>
<path d="M322.851 241.632L321.41 253.58C322.396 253.469 323.377 253.358 324.352 253.248L325.754 241.632H322.851Z" fill="#AEC3FF"/>
<path d="M281.724 258.371C282.661 258.27 283.643 258.165 284.665 258.053H284.666L286.646 241.632H283.744L281.724 258.371Z" fill="#AEC3FF"/>
<path d="M355.87 192.588H352.967V198.717L355.87 198.396V192.588Z" fill="#AEC3FF"/>
<path d="M313.528 192.588V203.082L316.43 202.761V192.588H313.528Z" fill="#AEC3FF"/>
<path d="M297.812 123.163C298.889 136.235 308.386 144.431 313.959 144.431C314.795 144.431 315.705 144.281 316.656 144.02V150.54H330.791V133.963C330.922 133.62 331.049 133.24 331.173 132.835C337.44 132.236 337.18 121.88 333.457 121.88C332.779 121.88 332.327 122.52 332.041 123.164L331.117 124.089V119.41C331.117 119.41 329.038 119.605 324.943 113.366C323.176 116.046 309.084 120.255 297.776 118.369C297.776 118.369 297.747 120.697 297.812 123.163Z" fill="#FCBEB7"/>
<path d="M314.934 100.627C324.682 100.627 326.632 105.826 326.632 105.826C330.792 105.826 337.161 113.43 333.326 121.879L333.306 121.899L331.116 124.088V119.409C331.116 119.409 329.037 119.605 324.942 113.366C323.175 116.045 309.083 120.254 297.775 118.369C297.775 118.369 297.746 120.697 297.811 123.163C297.811 123.166 297.811 123.168 297.811 123.171C293.587 110.952 302.066 100.627 314.934 100.627Z" fill="#311643"/>
<path d="M319.126 126.732C319.557 126.732 319.906 126.383 319.906 125.952V124.495C319.906 124.064 319.557 123.715 319.126 123.715C318.695 123.715 318.346 124.064 318.346 124.495V125.952C318.346 126.383 318.695 126.732 319.126 126.732Z" fill="#311643"/>
<path d="M304.665 126.732C305.096 126.732 305.446 126.383 305.446 125.952V124.495C305.446 124.064 305.096 123.715 304.665 123.715C304.234 123.715 303.885 124.064 303.885 124.495V125.952C303.885 126.383 304.234 126.732 304.665 126.732Z" fill="#311643"/>
<path d="M313.391 135.835C314.783 135.835 315.73 135.312 316.305 134.835C317.029 134.234 317.33 133.578 317.343 133.55C317.424 133.37 317.343 133.159 317.164 133.078C316.984 132.997 316.773 133.077 316.691 133.256C316.651 133.344 315.662 135.417 312.79 135.085C312.594 135.063 312.416 135.202 312.393 135.399C312.37 135.596 312.511 135.772 312.708 135.795C312.947 135.822 313.174 135.835 313.391 135.835Z" fill="#311643"/>
<path d="M324.303 133.198C326.433 133.198 328.16 131.472 328.16 129.342C328.16 127.212 326.433 125.485 324.303 125.485C322.173 125.485 320.447 127.212 320.447 129.342C320.447 131.472 322.173 133.198 324.303 133.198Z" fill="#F49795"/>
<path d="M298.213 126.14C298.702 128.73 299.521 131.091 300.556 133.193C302.596 133.092 304.218 131.407 304.218 129.342C304.218 127.212 302.492 125.486 300.362 125.486C299.566 125.485 298.827 125.727 298.213 126.14Z" fill="#F49795"/>
<path d="M299.2 123.079C299.2 126.092 301.652 128.543 304.664 128.543C307.609 128.543 310.015 126.203 310.124 123.285C311.758 122.36 313.213 123.024 313.665 123.281C313.772 126.201 316.179 128.543 319.124 128.543C322.137 128.543 324.588 126.092 324.588 123.079C324.588 120.065 322.136 117.614 319.124 117.614C316.309 117.614 313.985 119.753 313.692 122.491C312.979 122.164 311.628 121.773 310.097 122.494C309.804 119.754 307.479 117.614 304.664 117.614C301.652 117.614 299.2 120.065 299.2 123.079ZM314.376 123.079C314.376 120.459 316.506 118.329 319.126 118.329C321.745 118.329 323.876 120.459 323.876 123.079C323.876 125.697 321.745 127.828 319.126 127.828C316.506 127.828 314.376 125.698 314.376 123.079ZM299.915 123.079C299.915 120.459 302.046 118.329 304.665 118.329C307.285 118.329 309.415 120.459 309.415 123.079C309.415 125.697 307.285 127.828 304.665 127.828C302.046 127.828 299.915 125.698 299.915 123.079Z" fill="white"/>
<path d="M316.656 150.54V144.02C319.852 143.142 323.491 140.989 326.226 138.938L316.656 150.54Z" fill="#F9AFAB"/>
<path d="M276.493 261.995L279.445 261.591L282.239 238.419H279.337L276.493 261.995Z" fill="#EBEDF4"/>
<path d="M284.332 173.444L281.769 178.358H295.431L284.332 173.444Z" fill="#FCBEB7"/>
<path d="M310.5 302.186V312.766C310.5 314 309.5 314.999 308.266 314.999H278.258C277.973 314.999 277.742 314.768 277.742 314.483V312.533C277.742 311.592 278.29 310.737 279.146 310.345L296.497 302.185H310.5V302.186Z" fill="#2F3D6C"/>
<path d="M310.5 296.167L310.493 302.186H296.498L295.53 296.167H310.5Z" fill="#FCBEB7"/>
<path d="M316.681 144.391L297.68 152.973C295.068 154.153 292.942 156.198 291.661 158.763L284.333 173.443L295.432 178.357L294.512 210.806H349.821L347.406 180.5L357.409 180.565V163.984C357.409 158.848 354.323 154.215 349.583 152.236L330.792 144.39C330.791 144.391 322.581 149.778 316.681 144.391Z" fill="#89AEFF"/>
<path d="M312.133 146.365C315.133 148.878 318.882 150.247 322.841 150.247C327.01 150.247 331.12 148.583 334.192 145.811L333.587 145.559C330.646 148.139 326.789 149.675 322.841 149.675C319.114 149.675 315.579 148.419 312.721 146.109L312.133 146.365Z" fill="white"/>
<path d="M281.052 302.186V312.766C281.052 314 280.052 314.999 278.818 314.999H248.811C248.525 314.999 248.294 314.768 248.294 314.483V312.533C248.294 311.592 248.843 310.737 249.698 310.345L267.049 302.185H281.052V302.186Z" fill="#2F3D6C"/>
<path d="M281.052 296.167L281.045 302.186H267.05L266.081 296.167H281.052Z" fill="#FCBEB7"/>
<path d="M320.374 210.807V211.372C320.385 225.584 308.867 237.112 294.653 237.112H282.705L281.052 296.165H266.081L255.043 225.754C253.812 217.901 259.883 210.806 267.83 210.806H320.374V210.807Z" fill="#6277D7"/>
<path d="M254.885 223.781C256.174 225.666 258.343 226.904 260.801 226.904C264.759 226.904 267.966 223.697 267.966 219.739C267.966 215.939 265.008 212.829 261.268 212.589C257.407 214.866 254.864 219.081 254.885 223.781Z" fill="#4A5EA3"/>
<path d="M284.334 223.505L282.705 237.113H292.509L284.334 223.505Z" fill="#4A5EA3"/>
<path d="M349.822 210.807V211.372C349.833 225.584 338.315 237.112 324.101 237.112H312.153L310.5 296.165H295.529L284.491 225.754C283.26 217.901 289.331 210.806 297.278 210.806H349.822V210.807Z" fill="#6277D7"/>
<path d="M357.408 180.566L356.876 198.944C356.732 203.911 352.664 207.863 347.695 207.863H315.703L313.555 200.381L341.774 195.73L341.974 180.466L357.408 180.566Z" fill="#FCBEB7"/>
<path d="M347.92 204.042C347.92 205.494 348.573 206.795 349.602 207.665C352.909 206.966 355.567 204.487 356.509 201.264C355.648 200.073 354.247 199.298 352.664 199.298C350.044 199.297 347.92 201.421 347.92 204.042Z" fill="#F9AFAB"/>
<path d="M341.973 180.467L337.641 196.411L341.773 195.73L341.973 180.467Z" fill="#4A62D3"/>
<path d="M317.497 199.731L322.541 207.863H315.703L313.555 200.381L317.497 199.731Z" fill="#F9AFAB"/>
<path d="M262.523 178.358H304.239C306.011 178.358 307.57 179.532 308.059 181.235L315.703 207.863H332.619C333.432 207.863 334.091 208.522 334.091 209.335C334.091 210.148 333.432 210.807 332.619 210.807H316.548H311.438H266.562L258.703 183.429C257.974 180.889 259.88 178.358 262.523 178.358Z" fill="#4A5EA3"/>
<path d="M284.334 223.505C285.597 225.546 287.855 226.905 290.431 226.905C294.389 226.905 297.597 223.697 297.597 219.739C297.597 215.883 294.55 212.737 290.732 212.58C286.938 214.81 284.412 218.91 284.334 223.505Z" fill="#4A5EA3"/>
<path d="M285.764 197.965C286.616 197.89 287.218 196.821 287.109 195.578C286.999 194.335 286.22 193.387 285.368 193.462C284.517 193.537 283.915 194.606 284.024 195.849C284.134 197.093 284.913 198.04 285.764 197.965Z" fill="#89AEFF"/>
<path d="M349.017 158.985C349.017 161.302 350.896 163.181 353.213 163.181C354.885 163.181 356.326 162.204 357.001 160.791C356.408 158.5 355.188 156.426 353.493 154.8C353.4 154.793 353.307 154.79 353.213 154.79C350.895 154.79 349.017 156.668 349.017 158.985Z" fill="#4A62D3"/>
<path d="M291.92 158.272C292.588 158.723 293.394 158.985 294.26 158.985C296.577 158.985 298.455 157.106 298.455 154.79C298.455 154.086 298.283 153.422 297.976 152.84L297.68 152.974C295.236 154.077 293.219 155.937 291.92 158.272Z" fill="#4A62D3"/>
<path d="M206.928 196.111L192.285 314.507H189.377L204.02 196.111H206.928Z" fill="#D2DCFF"/>
<path d="M144.013 241.019L135.148 314.507H132.242L141.105 241.019H144.013Z" fill="#D2DCFF"/>
<path d="M104.841 241.018L103.844 249.283L95.9767 314.506H93.0696L100.975 248.96L101.933 241.018H104.841Z" fill="#D2DCFF"/>
<path d="M144.013 314.506H141.105L139.88 304.343L138.426 292.292L133.645 252.653L132.242 241.018H135.149L136.592 252.985L139.88 280.239L141.333 292.29L144.013 314.506Z" fill="#D2DCFF"/>
<path d="M183.184 314.506H180.277L173.398 257.466H173.397L171.413 241.018H174.32L176.343 257.784L183.184 314.506Z" fill="#D2DCFF"/>
<path d="M104.982 191.892H102.075V236.346H104.982V191.892Z" fill="#D2DCFF"/>
<path d="M144.487 191.892H141.58V236.346H144.487V191.892Z" fill="#D2DCFF"/>
<path d="M175.541 236.346H135.597C136.887 236.346 137.933 237.392 137.933 238.682C137.933 239.972 136.887 241.018 135.597 241.018H175.541C176.831 241.018 177.877 239.972 177.877 238.682C177.877 237.392 176.831 236.346 175.541 236.346Z" fill="#D2DCFF"/>
<path d="M137.933 238.682C137.933 237.392 136.887 236.346 135.597 236.346H105.044H101.109C99.8187 236.346 98.7725 237.392 98.7725 238.682C98.7725 239.972 99.8187 241.018 101.109 241.018H105.044H135.597C136.887 241.018 137.933 239.972 137.933 238.682Z" fill="#86A2E2"/>
<path d="M145.702 191.892H100.861C98.4217 191.892 96.4441 189.915 96.4441 187.476V162.856C96.4441 160.417 98.4217 158.439 100.861 158.439H145.702C148.141 158.439 150.118 160.417 150.118 162.856V187.476C150.118 189.916 148.141 191.892 145.702 191.892Z" fill="#D2DCFF"/>
<path d="M104.841 241.018L103.844 249.283C102.793 249.165 101.833 249.057 100.975 248.96L101.933 241.018H104.841Z" fill="#AEC3FF"/>
<path d="M135.149 241.018L136.592 252.986C135.605 252.875 134.622 252.764 133.645 252.653L132.242 241.018H135.149Z" fill="#AEC3FF"/>
<path d="M176.343 257.784C175.404 257.684 174.42 257.577 173.398 257.467H173.397L171.413 241.018H174.32L176.343 257.784Z" fill="#AEC3FF"/>
<path d="M102.075 191.892H104.982V198.032L102.075 197.711V191.892Z" fill="#AEC3FF"/>
<path d="M144.487 191.892V202.406L141.58 202.084V191.892H144.487Z" fill="#AEC3FF"/>
<path d="M150.173 113.881C146.758 119.532 136.317 127.664 120.792 122.7V122.701C120.744 122.694 120.695 122.69 120.644 122.69C116.951 122.69 116.694 132.961 122.909 133.555C123 133.856 123.095 134.142 123.19 134.411V151.114H137.209V144.622C138.187 144.897 139.123 145.055 139.981 145.055C145.78 145.055 155.86 136.11 156.089 122.019C154.537 121.67 150.173 117.824 150.173 113.881Z" fill="#FCBEB7"/>
<path d="M159.034 117.921C159.034 108.64 150.848 101.119 138.574 101.119C128.372 101.119 124.867 106.749 124.867 106.749C124.867 106.749 115.224 108.832 115.224 120.814C115.224 131.952 115.224 151.115 115.224 151.115H131.068H131.876H143.577H156.296V126.161C157.301 124.927 159.034 122.183 159.034 117.921ZM139.981 145.056C139.123 145.056 138.187 144.898 137.209 144.622V151.115H123.19V134.412C123.095 134.144 123 133.857 122.909 133.555C116.694 132.961 116.951 122.691 120.644 122.691C120.695 122.691 120.744 122.695 120.792 122.702V122.701C136.317 127.664 146.758 119.532 150.174 113.882C150.174 117.825 154.537 121.67 156.09 122.02C155.86 136.111 145.78 145.056 139.981 145.056Z" fill="#311643"/>
<path d="M112.211 149.883L123.19 144.796L129.216 144.956L137.209 145.333L148.697 148.82V163.478H112.211V149.883Z" fill="#FCBEB7"/>
<path d="M148.697 164.375V148.821L137.209 145.333V144.622C133.961 143.706 130.269 141.485 127.558 139.414L148.697 164.375Z" fill="#F9AFAB"/>
<path d="M129.722 133.917C131.834 133.917 133.546 132.204 133.546 130.092C133.546 127.98 131.834 126.267 129.722 126.267C127.61 126.267 125.897 127.98 125.897 130.092C125.897 132.204 127.61 133.917 129.722 133.917Z" fill="#F49795"/>
<path d="M155.597 126.916C155.113 129.485 154.3 131.827 153.273 133.911C151.251 133.81 149.642 132.139 149.642 130.091C149.642 127.979 151.355 126.267 153.466 126.267C154.255 126.267 154.988 126.507 155.597 126.916Z" fill="#F49795"/>
<path d="M149.128 118.46C146.336 118.46 144.03 120.584 143.74 123.3C142.222 122.585 140.882 122.972 140.174 123.297C139.882 120.582 137.578 118.46 134.787 118.46C131.799 118.46 129.368 120.891 129.368 123.88C129.368 126.868 131.799 129.299 134.787 129.299C137.709 129.299 140.097 126.975 140.201 124.078C140.651 123.819 142.081 123.159 143.713 124.084C143.821 126.978 146.208 129.299 149.127 129.299C152.116 129.299 154.547 126.868 154.547 123.88C154.547 120.891 152.117 118.46 149.128 118.46ZM134.787 128.59C132.19 128.59 130.076 126.477 130.076 123.88C130.076 121.283 132.189 119.169 134.787 119.169C137.385 119.169 139.498 121.283 139.498 123.88C139.498 126.477 137.385 128.59 134.787 128.59ZM149.128 128.59C146.531 128.59 144.417 126.477 144.417 123.88C144.417 121.283 146.53 119.169 149.128 119.169C151.726 119.169 153.839 121.283 153.839 123.88C153.839 126.477 151.726 128.59 149.128 128.59Z" fill="white"/>
<path d="M149.132 127.346C148.705 127.346 148.359 126.999 148.359 126.572V125.128C148.359 124.7 148.705 124.354 149.132 124.354C149.558 124.354 149.905 124.7 149.905 125.128V126.572C149.905 126.999 149.559 127.346 149.132 127.346Z" fill="#311643"/>
<path d="M135.022 127.346C134.595 127.346 134.249 126.999 134.249 126.572V125.128C134.249 124.7 134.595 124.354 135.022 124.354C135.45 124.354 135.795 124.7 135.795 125.128V126.572C135.796 126.999 135.45 127.346 135.022 127.346Z" fill="#311643"/>
<path d="M140.544 136.532C139.164 136.532 138.224 136.013 137.654 135.54C136.936 134.944 136.638 134.293 136.625 134.266C136.545 134.087 136.625 133.877 136.803 133.797C136.981 133.716 137.19 133.796 137.272 133.973C137.312 134.061 138.293 136.116 141.141 135.787C141.336 135.765 141.512 135.904 141.534 136.099C141.557 136.293 141.418 136.469 141.222 136.492C140.985 136.519 140.758 136.532 140.544 136.532Z" fill="#311643"/>
<path d="M172.277 308.982L159.417 303.454L160.076 306.641L144.256 301.673V306.206C144.256 307.8 145.09 309.245 146.401 310.058L147.761 313.947C147.879 314.283 148.196 314.509 148.553 314.509C149.016 314.509 149.391 314.134 149.391 313.671V311.141L160.203 314.509H171.14C172.731 314.509 174.02 313.22 174.02 311.629C174.019 310.477 173.334 309.437 172.277 308.982Z" fill="#2F3D6C"/>
<path d="M200.32 308.982L187.46 303.454L188.119 306.641L172.299 301.673V306.206C172.299 307.8 173.133 309.245 174.444 310.058L175.804 313.947C175.922 314.283 176.239 314.509 176.596 314.509C177.059 314.509 177.434 314.134 177.434 313.671V311.141L188.246 314.509H199.183C200.774 314.509 202.063 313.22 202.063 311.629C202.063 310.477 201.378 309.437 200.32 308.982Z" fill="#2F3D6C"/>
<path d="M144.256 295.643L144.263 301.672L160.076 306.64L159.417 303.454L158.103 302.782L159.252 295.643H144.256Z" fill="#FCBEB7"/>
<path d="M172.299 295.643L172.307 301.672L188.12 306.64L187.46 303.454L186.147 302.785L187.295 295.643H172.299Z" fill="#FCBEB7"/>
<path d="M132.913 210.143V210.709C132.902 224.946 144.44 236.492 158.676 236.492H170.644L172.3 295.644H187.296L198.352 225.116C199.585 217.251 193.505 210.144 185.545 210.144H132.913V210.143Z" fill="#6277D7"/>
<path d="M169.615 229.539L170.643 236.491H168.459L169.615 229.539Z" fill="#4A5EA3"/>
<path d="M109.388 220.888C110.138 229.712 117.52 236.492 126.376 236.492H142.6L144.256 295.644H159.252L170.192 225.861C171.486 217.605 165.103 210.144 156.746 210.144H155.546L152.104 199.856H112.604L109.601 216.398C109.331 217.878 109.26 219.388 109.388 220.888Z" fill="#6277D7"/>
<path d="M132.445 156.863C135.108 156.863 137.237 154.299 138.673 151.702H123.489C125.804 154.292 128.976 156.863 132.445 156.863Z" fill="white"/>
<path d="M160.981 157.259L159.931 155.624C158.567 153.5 156.647 151.81 154.399 150.725C153.773 150.424 153.122 150.169 152.449 149.964L140.75 146.401C140.75 146.824 140.014 149.278 138.673 151.703C137.237 154.3 135.108 156.864 132.445 156.864C128.976 156.864 125.805 154.293 123.489 151.703C121.139 149.075 119.671 146.427 119.671 146.427L109.217 151.271C104.938 153.254 101.788 157.068 100.649 161.645L95.9889 176.537C95.1915 179.085 94.7854 181.74 94.7854 184.411V185.644C94.7854 188.845 97.3807 191.439 100.582 191.439H111.727L112.604 199.855H152.104L162.059 158.937L160.981 157.259Z" fill="#FE9ECC"/>
<path d="M132.834 160.558C130.638 160.558 128.404 159.89 126.193 158.571C124.437 157.525 122.692 156.07 121.006 154.243C118.143 151.145 116.399 147.981 116.382 147.95L116.969 147.678C116.986 147.709 118.677 150.775 121.489 153.816C123.132 155.593 124.828 157.009 126.529 158.021C128.637 159.276 130.758 159.912 132.834 159.912C134.794 159.912 136.559 159.258 138.08 157.968C139.311 156.925 140.391 155.464 141.289 153.627C142.832 150.469 143.304 147.211 143.308 147.179L143.949 147.374C143.93 147.508 143.458 150.648 141.875 153.897C140.938 155.818 139.804 157.352 138.504 158.456C136.861 159.851 134.954 160.558 132.834 160.558Z" fill="white"/>
<path d="M198.362 225.037C197.053 226.448 195.181 227.33 193.104 227.33C189.139 227.33 185.925 224.117 185.925 220.152C185.925 216.188 189.139 212.975 193.104 212.975C193.29 212.975 193.476 212.981 193.659 212.995C197.109 215.772 199.084 220.261 198.362 225.037Z" fill="#4A5EA3"/>
<path d="M170.357 223.564C169.143 225.807 166.77 227.33 164.041 227.33C160.076 227.33 156.863 224.117 156.863 220.152C156.863 216.188 160.076 212.975 164.041 212.975C164.427 212.975 164.805 213.006 165.175 213.064C168.309 215.544 170.307 219.36 170.357 223.564Z" fill="#4A5EA3"/>
<path d="M99.9975 191.439H143.338V185.968L100.593 181.05C97.499 180.694 94.7854 183.113 94.7854 186.227C94.7863 189.106 97.1189 191.439 99.9975 191.439Z" fill="#FCBEB7"/>
<path d="M197.558 158.936H153.274C151.499 158.936 149.938 160.112 149.448 161.819L141.791 188.49H124.883C124.084 188.49 123.402 189.111 123.374 189.91C123.345 190.749 124.016 191.439 124.848 191.439H146.063H191.013L199.575 161.612C199.96 160.273 198.953 158.936 197.558 158.936Z" fill="#4A5EA3"/>
<path d="M173.806 176.378C173.915 175.132 173.312 174.062 172.459 173.987C171.606 173.912 170.825 174.861 170.716 176.106C170.606 177.351 171.209 178.422 172.062 178.497C172.916 178.572 173.696 177.623 173.806 176.378Z" fill="#2F3D6C"/>
<path d="M112.603 199.855L111.023 208.559L153.011 202.569L152.103 199.855H112.603Z" fill="#4A5EA3"/>
<path d="M110.331 153.756C110.331 156.382 108.202 158.511 105.575 158.511C104.375 158.511 103.279 158.066 102.442 157.332C104.029 154.712 106.373 152.588 109.216 151.27L109.534 151.123C110.038 151.877 110.331 152.783 110.331 153.756Z" fill="#FF78BA"/>
<path d="M160.981 157.259C160.244 157.729 159.369 158 158.431 158C155.805 158 153.675 155.872 153.675 153.245C153.675 152.32 153.94 151.455 154.398 150.724C156.647 151.809 158.567 153.499 159.93 155.623L160.981 157.259Z" fill="#FF78BA"/>
<path d="M145.774 174.615C145.59 175.256 137.547 183.917 137.547 183.917L116.116 182.836L142.542 185.878L145.774 174.615Z" fill="#FF78BA"/>
<path d="M61.119 196.112L57.2011 227.787L46.4755 314.507H43.5675L54.2629 228.036L58.2119 196.112H61.119Z" fill="#D2DCFF"/>
<path d="M99.5966 314.507H96.6895L85.6667 225.387L82.0459 196.112H84.953L88.5443 225.145L99.5966 314.507Z" fill="#D2DCFF"/>
<path d="M58.2119 196.112H61.119L57.2012 227.787L54.2629 228.036L58.2119 196.112Z" fill="#AEC3FF"/>
<path d="M84.953 196.112L88.5443 225.145L85.6667 225.387L82.0459 196.112H84.953Z" fill="#AEC3FF"/>
<path d="M245.406 314.507H242.499L229.971 213.217L227.855 196.112H230.762L232.849 212.975L245.406 314.507Z" fill="#D2DCFF"/>
<path d="M232.849 212.975L229.971 213.217L227.855 196.112H230.762L232.849 212.975Z" fill="#AEC3FF"/>
<path d="M238.468 191.439H90.1868V196.111H238.468C239.758 196.111 240.804 195.065 240.804 193.775C240.804 192.485 239.758 191.439 238.468 191.439Z" fill="#D2DCFF"/>
<path d="M60.0038 191.439H51.2418C49.952 191.439 48.9058 192.485 48.9058 193.775C48.9058 195.065 49.952 196.111 51.2418 196.111H60.0038H90.1868V191.439H60.0038Z" fill="#86A2E2"/>
<path d="M235.132 186.216V185.026C235.132 184.657 234.833 184.359 234.465 184.359H206.829C205.435 184.359 204.305 185.489 204.305 186.883V188.914C204.305 190.309 205.435 191.439 206.829 191.439H234.465C234.833 191.439 235.132 191.141 235.132 190.773V189.581C235.132 189.213 234.833 188.914 234.465 188.914H207.844C207.284 188.914 206.829 188.46 206.829 187.899C206.829 187.338 207.284 186.884 207.844 186.884H234.465C234.834 186.883 235.132 186.585 235.132 186.216Z" fill="#6277D7"/>
<path d="M233.939 186.883V188.914H207.845C207.284 188.914 206.83 188.46 206.83 187.899C206.83 187.338 207.284 186.884 207.845 186.884H233.939V186.883Z" fill="#D2DCFF"/>
<path d="M233.158 179.136V177.945C233.158 177.577 232.859 177.278 232.491 177.278H208.804C207.41 177.278 206.28 178.409 206.28 179.803V181.834C206.28 183.229 207.41 184.359 208.804 184.359H232.491C232.859 184.359 233.158 184.061 233.158 183.692V182.5C233.158 182.132 232.859 181.834 232.491 181.834H209.819C209.258 181.834 208.804 181.379 208.804 180.818C208.804 180.258 209.258 179.803 209.819 179.803H232.491C232.859 179.802 233.158 179.504 233.158 179.136Z" fill="#F9A0C0"/>
<path d="M232.279 179.802V181.833H209.819C209.258 181.833 208.804 181.379 208.804 180.818C208.804 180.258 209.258 179.803 209.819 179.803H232.279V179.802Z" fill="#FFD9E8"/>
<path d="M73.0205 180.077H86.0615C86.7051 180.077 87.2035 180.639 87.1267 181.278L86.0234 190.493C85.9586 191.033 85.5016 191.439 84.9582 191.439H74.1238C73.5804 191.439 73.1233 191.033 73.0585 190.493L71.9553 181.278C71.8793 180.639 72.3777 180.077 73.0205 180.077Z" fill="#D2DCFF"/>
<path d="M84.0183 176.317V172.126L81.5111 176.889V169.154L79.5414 174.024L77.5717 169.154V176.889L75.0646 172.126V176.317L71.411 170.443L73.0204 180.077H79.5414H86.0623L87.6718 170.443L84.0183 176.317Z" fill="#6277D7"/>
<path d="M100.069 189.687C101.98 189.687 103.529 188.138 103.529 186.227C103.529 184.316 101.98 182.767 100.069 182.767C98.1584 182.767 96.6093 184.316 96.6093 186.227C96.6093 188.138 98.1584 189.687 100.069 189.687Z" fill="#F9AFAB"/>
<path d="M404.746 240.827L402.804 256.94L400.47 276.286L399.003 288.45L398.503 292.575L397.036 304.742L395.799 314.999H392.865L395.571 292.578L397.036 280.412L397.535 276.286L399.003 264.123V264.12L399.976 256.048L401.811 240.827H404.746Z" fill="#D2DCFF"/>
<path d="M424.402 314.999H421.468L414.929 260.777L412.521 240.827H415.456L417.979 261.74L424.402 314.999Z" fill="#D2DCFF"/>
<path d="M385.481 240.827L384.244 251.073L379.239 292.575L377.772 304.742L376.535 314.999H373.6L376.304 292.578L377.772 280.412L381.419 250.179L382.547 240.827H385.481Z" fill="#D2DCFF"/>
<path d="M405.137 314.999H402.204L399.003 288.45L397.535 276.286L394.899 254.441L393.257 240.827H396.191L397.952 255.406L399.003 264.12V264.123L400.47 276.286L405.137 314.999Z" fill="#D2DCFF"/>
<path d="M417.437 240.826H379.359C378.093 240.826 377.068 239.799 377.068 238.535V238.402C377.068 237.136 378.094 236.11 379.359 236.11H417.437C418.703 236.11 419.728 237.137 419.728 238.402V238.535C419.728 239.799 418.703 240.826 417.437 240.826Z" fill="#D2DCFF"/>
<path d="M399.075 240.826H379.359C378.093 240.826 377.068 239.799 377.068 238.535V238.402C377.068 237.136 378.094 236.11 379.359 236.11H399.075C400.341 236.11 401.366 237.137 401.366 238.402V238.535C401.366 239.799 400.341 240.826 399.075 240.826Z" fill="#86A2E2"/>
<path d="M391.817 224.642H404.979C405.628 224.642 406.132 225.209 406.055 225.854L404.941 235.156C404.876 235.7 404.414 236.11 403.866 236.11H392.93C392.381 236.11 391.92 235.7 391.854 235.156L390.741 225.854C390.664 225.209 391.168 224.642 391.817 224.642Z" fill="#D2DCFF"/>
<path d="M402.917 220.847V216.617L400.386 221.425V213.616L398.398 218.533L396.41 213.616V221.425L393.88 216.617V220.847L390.192 214.917L391.817 224.642H398.398H404.979L406.604 214.917L402.917 220.847Z" fill="#FE9ECC"/>
<path d="M385.481 240.827L384.244 251.073L381.419 250.179L382.547 240.827H385.481Z" fill="#AEC3FF"/>
<path d="M397.952 255.406L394.899 254.441L393.257 240.827H396.191L397.952 255.406Z" fill="#AEC3FF"/>
<path d="M404.746 240.827L402.804 256.94L399.976 256.048L401.811 240.827H404.746Z" fill="#AEC3FF"/>
<path d="M417.979 261.74L414.929 260.777L412.521 240.827H415.456L417.979 261.74Z" fill="#AEC3FF"/>
<path d="M93.0696 70.5795V106.176C93.0696 107.432 92.0511 108.451 90.7949 108.451H48.0028C46.7467 108.451 45.7281 107.432 45.7281 106.176V70.5795C45.7281 69.3233 46.7458 68.3047 48.0028 68.3047H90.7949C92.0511 68.3047 93.0696 69.3233 93.0696 70.5795Z" fill="#FFD9E8"/>
<path d="M93.0696 70.5795V77.2905H45.7281V70.5795C45.7281 69.3233 46.7467 68.3047 48.0028 68.3047H90.7949C92.0511 68.3047 93.0696 69.3233 93.0696 70.5795Z" fill="#FE9ECC"/>
<path d="M58.5575 71.154C57.9087 71.154 57.3834 70.6288 57.3834 69.98V66.6304C57.3834 65.9825 57.9096 65.4564 58.5575 65.4564C59.2063 65.4564 59.7316 65.9825 59.7316 66.6304V69.98C59.7325 70.6288 59.2063 71.154 58.5575 71.154Z" fill="#FE9ECC"/>
<path d="M80.2395 71.154C79.5907 71.154 79.0654 70.6288 79.0654 69.98V66.6304C79.0654 65.9825 79.5916 65.4564 80.2395 65.4564C80.8883 65.4564 81.4136 65.9825 81.4136 66.6304V69.98C81.4136 70.6288 80.8883 71.154 80.2395 71.154Z" fill="#FE9ECC"/>
<path d="M59.2469 93.8683L64.3 89.3302C64.5575 89.0978 64.8141 88.8343 65.0716 88.5397C65.329 88.2459 65.4578 87.903 65.4578 87.5108C65.4578 87.0702 65.2979 86.7236 64.9799 86.4722C64.6612 86.2208 64.2879 86.0955 63.8594 86.0955C63.3445 86.0955 62.9437 86.2545 62.656 86.5733C62.3683 86.892 62.206 87.2843 62.1688 87.7491L59.4128 87.5471C59.4491 86.8732 59.5899 86.2883 59.8353 85.7924C60.0807 85.2965 60.4046 84.8827 60.8089 84.5518C61.2132 84.2209 61.6876 83.9729 62.2327 83.8079C62.7779 83.6429 63.3688 83.5601 64.0055 83.5601C64.5938 83.5601 65.145 83.6429 65.659 83.8079C66.173 83.9729 66.6206 84.2183 67.0008 84.5432C67.38 84.868 67.6772 85.2749 67.8923 85.7656C68.1066 86.2555 68.2137 86.8257 68.2137 87.4745C68.2137 87.8909 68.1704 88.2675 68.0849 88.6044C67.9994 88.9413 67.8794 89.248 67.7264 89.5228C67.5735 89.7984 67.392 90.0533 67.1847 90.2857C66.9765 90.5189 66.7493 90.7451 66.5048 90.9655L62.5541 94.3651H68.3233V96.7911H59.2461V93.8683H59.2469Z" fill="#FE9ECC"/>
<path d="M74.8287 92.1413C74.6819 92.1776 74.535 92.2087 74.3881 92.2329C74.2413 92.2579 74.0875 92.2691 73.9285 92.2691C73.316 92.2691 72.7588 92.1596 72.2569 91.9384C71.7541 91.7181 71.3256 91.4175 70.9705 91.0382C70.6154 90.659 70.3398 90.2086 70.1437 89.6877C69.9476 89.1676 69.85 88.6131 69.85 88.0248C69.85 87.3509 69.9752 86.7419 70.2266 86.1968C70.4771 85.6516 70.821 85.1832 71.2555 84.791C71.6901 84.3988 72.2015 84.0955 72.7899 83.8813C73.3782 83.667 74.015 83.5601 74.7009 83.5601C75.3748 83.5601 76.008 83.667 76.6024 83.8813C77.1967 84.0955 77.7109 84.3988 78.1463 84.791C78.5808 85.1832 78.9238 85.6516 79.1752 86.1968C79.4257 86.7419 79.5519 87.3518 79.5519 88.0248C79.5519 88.4905 79.5086 88.9155 79.4231 89.3017C79.3376 89.6879 79.2244 90.0524 79.0836 90.3953C78.9428 90.7383 78.7769 91.0657 78.5877 91.3784C78.3977 91.6912 78.1989 92.0127 77.9907 92.3436L75.1424 96.7902H71.78L74.8287 92.1413ZM72.605 88.1353C72.605 88.7237 72.7977 89.21 73.1839 89.5962C73.5701 89.9823 74.0746 90.1751 74.7001 90.1751C75.3256 90.1751 75.8301 89.9823 76.2163 89.5962C76.6024 89.21 76.795 88.7237 76.795 88.1353C76.795 87.547 76.6024 87.0607 76.2163 86.6745C75.8301 86.2883 75.3256 86.0955 74.7001 86.0955C74.0746 86.0955 73.5701 86.2883 73.1839 86.6745C72.7986 87.0607 72.605 87.5479 72.605 88.1353Z" fill="#FE9ECC"/>
<path d="M74.8373 103.627H63.9605C63.6961 103.627 63.4818 103.413 63.4818 103.149C63.4818 102.884 63.6961 102.67 63.9605 102.67H74.8373C75.1017 102.67 75.316 102.884 75.316 103.149C75.316 103.413 75.1017 103.627 74.8373 103.627Z" fill="#FE9ECC"/>
<path d="M31.3783 267.132C41.6383 248.348 9.24967 239.515 1.44236 246.966C-6.36581 254.417 19.5192 288.845 31.3783 267.132Z" fill="#FE9ECC"/>
<path d="M44.9947 261.398C65.1285 261.398 56.0166 225.386 47.4085 225.386C36.6163 225.387 21.7326 261.398 44.9947 261.398Z" fill="#FE9ECC"/>
<path d="M60.5134 274.462C77.1129 287.975 91.7019 257.74 85.7996 248.704C79.8972 239.668 41.3264 258.843 60.5134 274.462Z" fill="#FE9ECC"/>
<path d="M39.3454 283.403C36.5437 276.92 32.4427 270.879 27.1572 265.45C18.1646 256.215 8.70625 251.883 8.61122 251.841C8.32958 251.714 7.99778 251.839 7.87078 252.12C7.74379 252.402 7.86905 252.732 8.14983 252.86C8.24227 252.902 17.5373 257.164 26.3822 266.26C31.5657 271.589 35.5848 277.514 38.3269 283.869C38.6379 284.591 38.9273 285.319 39.2054 286.052H40.402C40.0728 285.161 39.7229 284.277 39.3454 283.403Z" fill="#FF78BA"/>
<path d="M46.9082 232.771C46.9445 232.465 46.725 232.187 46.4183 232.149C46.1108 232.112 45.8334 232.332 45.7972 232.639C45.7609 232.945 42.9376 257.078 43.0819 286.052H44.2006C44.0563 257.153 46.8719 233.076 46.9082 232.771Z" fill="#FF78BA"/>
<path d="M80.2083 252.75C80.0364 252.492 79.6891 252.423 79.4325 252.595C79.3521 252.649 71.2761 258.081 62.9678 267.016C58.4425 271.881 53.2987 278.406 49.5303 286.052H50.7812C54.465 278.743 59.4084 272.489 63.7695 267.797C71.9906 258.953 79.9742 253.579 80.0546 253.526C80.3103 253.354 80.3794 253.007 80.2083 252.75Z" fill="#FF78BA"/>
<path d="M44.2007 286.052H43.082H40.4029H39.2063H23.5892C22.9888 286.052 22.5628 286.638 22.7486 287.209L23.7343 290.234L24.2336 291.765L31.3705 313.662C31.5641 314.256 32.1187 314.659 32.7433 314.659H58.4685C59.0931 314.659 59.6477 314.256 59.8412 313.662L66.9782 291.765L67.4766 290.234L68.4624 287.209C68.649 286.638 68.2231 286.052 67.6227 286.052H50.7778H49.5268H44.2007Z" fill="#D2DCFF"/>
<path d="M67.4784 290.234L66.9799 291.764H24.2336L23.7351 290.234H67.4784Z" fill="#AEC3FF"/>
</svg>
