<svg width="468" height="361" viewBox="0 0 468 361" fill="none" xmlns="http://www.w3.org/2000/svg">
<path d="M250.104 314.311L227.156 303.177L217.508 323.064L240.456 334.198L250.104 314.311Z" fill="#4A5EA3"/>
<path d="M225.97 306L200.665 309.191L203.43 331.12L228.735 327.929L225.97 306Z" fill="#4A5EA3"/>
<path d="M258.257 315.68H213.344V360.593H258.257V315.68Z" fill="#D2DCFF"/>
<path d="M213.344 315.68H188.603V360.593H213.344V315.68Z" fill="#AEC3FF"/>
<path d="M188.603 315.68L175.751 329.447H203.666L213.344 315.68H188.603Z" fill="#86A2E2"/>
<path d="M258.257 315.68L267.43 329.624H222.582L213.344 315.614L258.257 315.68Z" fill="#AEC3FF"/>
<path d="M222.872 306.532L221.066 315.628L225.947 306.145L222.872 306.532Z" fill="#2F3D6C"/>
<path d="M462.165 345.317V341.849C462.165 340.776 461.295 339.906 460.223 339.906H379.736C375.676 339.906 372.384 343.198 372.384 347.259V353.173C372.384 357.234 375.676 360.526 379.736 360.526H460.223C461.296 360.526 462.165 359.656 462.165 358.583V355.115C462.165 354.042 461.295 353.173 460.223 353.173H382.694C381.06 353.173 379.736 351.849 379.736 350.216C379.736 348.582 381.06 347.258 382.694 347.258H460.223C461.295 347.26 462.165 346.39 462.165 345.317Z" fill="#86A2E2"/>
<path d="M461.384 283.457V279.988C461.384 278.916 460.514 278.047 459.441 278.047H378.954C374.893 278.047 371.601 281.338 371.601 285.399V291.314C371.601 295.374 374.893 298.667 378.954 298.667H459.441C460.514 298.667 461.384 297.797 461.384 296.725V293.256C461.384 292.183 460.514 291.314 459.441 291.314H381.912C380.278 291.314 378.954 289.99 378.954 288.356C378.954 286.722 380.278 285.398 381.912 285.398H459.441C460.514 285.399 461.384 284.53 461.384 283.457Z" fill="#D2DCFF"/>
<path d="M456.414 324.697V321.229C456.414 320.156 455.545 319.287 454.472 319.287H385.486C381.425 319.287 378.133 322.579 378.133 326.64V332.554C378.133 336.615 381.425 339.907 385.486 339.907H454.472C455.545 339.907 456.414 339.037 456.414 337.965V334.497C456.414 333.424 455.545 332.554 454.472 332.554H388.444C386.81 332.554 385.486 331.23 385.486 329.597C385.486 327.963 386.81 326.639 388.444 326.639H454.472C455.545 326.639 456.414 325.769 456.414 324.697Z" fill="#AEC3FF"/>
<path d="M468 263.398V259.929C468 258.856 467.131 257.987 466.058 257.987H397.072C393.011 257.987 389.719 261.279 389.719 265.34V271.254C389.719 275.315 393.011 278.607 397.072 278.607H466.058C467.131 278.607 468 277.737 468 276.665V273.197C468 272.124 467.131 271.255 466.058 271.255H400.029C398.396 271.255 397.072 269.931 397.072 268.298C397.072 266.664 398.396 265.34 400.029 265.34H466.058C467.131 265.339 468 264.47 468 263.398Z" fill="#AEC3FF"/>
<path d="M453.857 326.639V332.553H388.444C386.81 332.553 385.486 331.229 385.486 329.596C385.486 327.962 386.81 326.638 388.444 326.638H453.857V326.639Z" fill="#EFF1FA"/>
<path d="M448.08 347.26V353.174H382.666C381.033 353.174 379.709 351.851 379.709 350.217C379.709 348.583 381.033 347.259 382.666 347.259H448.08V347.26Z" fill="#EFF1FA"/>
<path d="M447.298 285.399V291.313H381.885C380.252 291.313 378.928 289.99 378.928 288.356C378.928 286.722 380.252 285.398 381.885 285.398H447.298V285.399Z" fill="#EFF1FA"/>
<path d="M465.443 265.339V271.253H400.029C398.396 271.253 397.072 269.929 397.072 268.296C397.072 266.662 398.396 265.338 400.029 265.338H465.443V265.339Z" fill="#EFF1FA"/>
<path d="M468 304.077V300.608C468 299.535 467.131 298.665 466.058 298.665H397.072C393.011 298.665 389.719 301.957 389.719 306.018V311.932C389.719 315.993 393.011 319.285 397.072 319.285H466.058C467.131 319.285 468 318.416 468 317.344V313.875C468 312.802 467.131 311.933 466.058 311.933H400.029C398.396 311.933 397.072 310.61 397.072 308.976C397.072 307.342 398.396 306.018 400.029 306.018H466.058C467.131 306.019 468 305.15 468 304.077Z" fill="#86A2E2"/>
<path d="M465.443 306.019V311.934H400.029C398.396 311.934 397.072 310.61 397.072 308.976C397.072 307.342 398.396 306.019 400.029 306.019H465.443V306.019Z" fill="#EFF1FA"/>
<path d="M431.212 247.661H443.063C443.647 247.661 444.1 248.172 444.031 248.753L443.028 257.127C442.969 257.617 442.554 257.986 442.06 257.986H432.214C431.721 257.986 431.305 257.617 431.246 257.127L430.243 248.753C430.174 248.173 430.627 247.661 431.212 247.661Z" fill="#D2DCFF"/>
<path d="M441.205 244.245V240.437L438.927 244.766V237.735L437.136 242.162L435.347 237.735V244.766L433.069 240.437V244.245L429.748 238.907L431.212 247.662H437.136H443.062L444.524 238.907L441.205 244.245Z" fill="#6277D7"/>
<path d="M297.913 231.028H149.372C145.193 231.028 141.805 227.64 141.805 223.461V82.0368C141.805 77.8572 145.193 74.469 149.372 74.469H297.913C302.093 74.469 305.481 77.8572 305.481 82.0368V223.461C305.481 227.64 302.093 231.028 297.913 231.028Z" fill="#6277D7"/>
<path d="M234.933 97.1302H164.454C163.199 97.1302 162.182 96.1134 162.182 94.8589C162.182 93.6044 163.199 92.5876 164.454 92.5876H234.933C236.188 92.5876 237.204 93.6044 237.204 94.8589C237.204 96.1134 236.188 97.1302 234.933 97.1302Z" fill="#E1E9FF"/>
<path d="M212.276 108.462H164.454C163.199 108.462 162.182 107.446 162.182 106.191C162.182 104.937 163.199 103.92 164.454 103.92H212.276C213.53 103.92 214.547 104.937 214.547 106.191C214.547 107.446 213.53 108.462 212.276 108.462Z" fill="#E1E9FF"/>
<path d="M176.4 127.03H163.804C162.908 127.03 162.182 126.304 162.182 125.407C162.182 124.511 162.908 123.785 163.804 123.785H176.4C177.296 123.785 178.022 124.511 178.022 125.407C178.022 126.303 177.296 127.03 176.4 127.03Z" fill="#89AEFF"/>
<path d="M181.881 179.175V219.659C181.881 220.555 181.155 221.282 180.259 221.282H173.704C172.808 221.282 172.082 220.555 172.082 219.659V179.175C172.082 178.279 172.808 177.552 173.704 177.552H180.259C181.155 177.552 181.881 178.279 181.881 179.175Z" fill="#89AEFF"/>
<path d="M199.694 162.909V219.659C199.694 220.555 198.968 221.282 198.072 221.282H191.517C190.621 221.282 189.895 220.555 189.895 219.659V162.909C189.895 162.013 190.621 161.287 191.517 161.287H198.072C198.968 161.287 199.694 162.014 199.694 162.909Z" fill="#89AEFF"/>
<path d="M221.145 179.175V219.659C221.145 220.555 220.419 221.282 219.523 221.282H212.968C212.072 221.282 211.346 220.555 211.346 219.659V179.175C211.346 178.279 212.072 177.552 212.968 177.552H219.523C220.419 177.552 221.145 178.279 221.145 179.175Z" fill="#89AEFF"/>
<path d="M238.957 162.909V219.659C238.957 220.555 238.231 221.282 237.335 221.282H230.78C229.884 221.282 229.158 220.555 229.158 219.659V162.909C229.158 162.013 229.884 161.287 230.78 161.287H237.335C238.231 161.287 238.957 162.014 238.957 162.909Z" fill="#89AEFF"/>
<path d="M260.408 191.03V219.659C260.408 220.556 259.682 221.282 258.786 221.282H252.232C251.335 221.282 250.609 220.556 250.609 219.659V191.03C250.609 190.134 251.335 189.407 252.232 189.407H258.786C259.682 189.408 260.408 190.135 260.408 191.03Z" fill="#89AEFF"/>
<path d="M278.221 179.175V219.659C278.221 220.555 277.495 221.282 276.599 221.282H270.044C269.148 221.282 268.422 220.555 268.422 219.659V179.175C268.422 178.279 269.148 177.552 270.044 177.552H276.599C277.494 177.552 278.221 178.279 278.221 179.175Z" fill="#89AEFF"/>
<path d="M181.881 194.127V219.658C181.881 220.554 181.155 221.28 180.259 221.28H173.704C172.808 221.28 172.082 220.554 172.082 219.658V194.127C172.082 193.231 172.808 192.505 173.704 192.505H180.259C181.155 192.505 181.881 193.232 181.881 194.127Z" fill="#D2DCFF"/>
<path d="M199.694 183.424V219.659C199.694 220.555 198.968 221.282 198.072 221.282H191.517C190.621 221.282 189.895 220.555 189.895 219.659V183.424C189.895 182.528 190.621 181.802 191.517 181.802H198.072C198.968 181.802 199.694 182.528 199.694 183.424Z" fill="#D2DCFF"/>
<path d="M221.145 194.127V219.658C221.145 220.554 220.419 221.28 219.523 221.28H212.968C212.072 221.28 211.346 220.554 211.346 219.658V194.127C211.346 193.231 212.072 192.505 212.968 192.505H219.523C220.419 192.505 221.145 193.232 221.145 194.127Z" fill="#D2DCFF"/>
<path d="M238.957 183.424V219.659C238.957 220.555 238.231 221.282 237.335 221.282H230.78C229.884 221.282 229.158 220.555 229.158 219.659V183.424C229.158 182.528 229.884 181.802 230.78 181.802H237.335C238.231 181.802 238.957 182.528 238.957 183.424Z" fill="#D2DCFF"/>
<path d="M260.408 201.928V219.658C260.408 220.555 259.682 221.28 258.786 221.28H252.232C251.335 221.28 250.609 220.555 250.609 219.658V201.928C250.609 201.032 251.335 200.306 252.232 200.306H258.786C259.682 200.307 260.408 201.033 260.408 201.928Z" fill="#D2DCFF"/>
<path d="M278.221 194.127V219.658C278.221 220.554 277.495 221.28 276.599 221.28H270.044C269.148 221.28 268.422 220.554 268.422 219.658V194.127C268.422 193.231 269.148 192.505 270.044 192.505H276.599C277.494 192.505 278.221 193.232 278.221 194.127Z" fill="#D2DCFF"/>
<path d="M113.358 0H129.383L134.931 6.68662H169.626C171.973 6.68662 173.874 8.58826 173.874 10.9347L174.501 47.6738C174.501 50.0203 172.599 51.9219 170.253 51.9219H113.358C111.012 51.9219 109.11 50.0203 109.11 47.6738V4.24808C109.11 1.90164 111.012 0 113.358 0Z" fill="#6277D7"/>
<path d="M118.828 12.9011H164.414C166.293 12.9011 167.817 14.5045 167.817 16.4812V34.0865C167.817 36.0633 166.293 37.6666 164.414 37.6666H118.828C116.948 37.6666 115.424 36.0642 115.424 34.0865V16.4812C115.424 14.5045 116.948 12.9011 118.828 12.9011Z" fill="#D2DCFF"/>
<path d="M113.358 19.5784H170.253C172.599 19.5784 174.501 21.671 174.501 24.2531V47.246C174.501 49.8281 172.599 51.921 170.253 51.921H113.358C111.012 51.921 109.11 49.8281 109.11 47.246V24.2531C109.11 21.671 111.012 19.5784 113.358 19.5784Z" fill="#89AEFF"/>
<path d="M44.8528 252.926C44.8528 254.956 43.7466 256.726 42.1053 257.67L41.6216 256.676C40.2721 253.904 40.2512 250.68 41.5446 247.902C43.49 248.738 44.8528 250.673 44.8528 252.926Z" fill="#F9AFAB"/>
<path d="M103.538 203.508L101.911 200.338C102.356 197.729 102.545 194.892 102.396 191.851C102.363 191.164 102.312 190.467 102.242 189.76C98.8503 190.06 88.8972 190.459 81.5766 185.814C82.1164 190.126 80.5046 194.904 77.8332 198.932C77.5091 198.155 76.343 195.75 74.3339 195.75C70.3149 195.75 69.7066 202.173 71.9542 205.232C70.4023 206.385 68.7772 207.254 67.1673 207.738C67.1673 207.738 67.1606 207.732 67.1501 207.721V226.21H82.7361V218.154C84.8316 218.923 86.6924 219.365 88.0048 219.365C91.9279 219.365 97.8743 214.103 100.759 205.087H102.573C103.171 205.087 103.655 204.602 103.655 204.004C103.657 203.831 103.616 203.661 103.538 203.508Z" fill="#FCBEB7"/>
<path d="M71.9542 205.232C69.7066 202.173 70.3149 195.75 74.3339 195.75C76.342 195.75 77.5081 198.155 77.8332 198.932C80.5046 194.903 82.1164 190.126 81.5766 185.814C88.8981 190.46 98.8503 190.061 102.242 189.76C102.312 190.467 102.363 191.165 102.396 191.851C102.69 191.572 103.379 190.798 103.428 189.631C103.43 189.631 103.431 189.631 103.431 189.631C103.431 189.597 103.431 189.564 103.43 189.531C103.43 189.52 103.431 189.511 103.431 189.501C103.431 189.495 103.43 189.489 103.43 189.482C103.341 182.826 97.2471 171.524 82.3778 171.524C66.6218 171.524 63.6747 181.782 63.6747 181.782C63.6747 181.782 58.251 184.753 58.251 190.745C58.251 198.616 66.7377 207.304 67.1501 207.722C67.1606 207.732 67.1673 207.739 67.1673 207.739C68.7772 207.254 70.4023 206.385 71.9542 205.232Z" fill="#311643"/>
<path d="M82.7371 226.21V218.154C78.4101 216.565 73.0824 213.576 69.5138 210.18L82.7371 226.21Z" fill="#F9AFAB"/>
<path d="M85.3134 207.006C87.647 207.006 89.5387 205.114 89.5387 202.781C89.5387 200.447 87.647 198.556 85.3134 198.556C82.9798 198.556 81.0881 200.447 81.0881 202.781C81.0881 205.114 82.9798 207.006 85.3134 207.006Z" fill="#F49795"/>
<path d="M94.3466 209.313C93.497 209.313 92.9163 208.99 92.5637 208.698C92.1247 208.333 91.9403 207.94 91.9204 207.897C91.832 207.701 91.9194 207.47 92.1151 207.381C92.31 207.293 92.54 207.38 92.6284 207.574C92.6521 207.626 93.1739 208.687 94.6697 208.514C94.8826 208.49 95.0765 208.643 95.1012 208.856C95.1259 209.07 94.9729 209.263 94.7591 209.288C94.6156 209.305 94.4777 209.313 94.3466 209.313Z" fill="#311643"/>
<path d="M96.73 197.604C96.2615 197.604 95.8813 197.224 95.8813 196.756V195.17C95.8813 194.702 96.2615 194.322 96.73 194.322C97.1985 194.322 97.5787 194.702 97.5787 195.17V196.756C97.5787 197.224 97.1985 197.604 96.73 197.604Z" fill="#311643"/>
<path d="M102.456 195.573H99.8357V190.743C99.8357 190.528 99.6618 190.354 99.447 190.354C99.2323 190.354 99.0583 190.528 99.0583 190.743V201.183C99.0583 201.398 99.2323 201.572 99.447 201.572C99.6618 201.572 99.8357 201.398 99.8357 201.183V196.352H102.456C102.671 196.352 102.845 196.178 102.845 195.963C102.845 195.748 102.671 195.573 102.456 195.573Z" fill="white"/>
<path d="M128.217 258.079L84.3611 275.162L71.4125 292.398C69.4167 295.054 66.5999 296.923 63.4495 297.755L82.6372 310.967L119.354 291.648L117.842 338.557H134.314L148.081 275.029C150.584 263.481 139.227 253.791 128.217 258.079Z" fill="#6277D7"/>
<path d="M117.842 345.179V356.817C117.842 358.174 118.943 359.274 120.3 359.274H153.31C153.624 359.274 153.878 359.02 153.878 358.706V356.561C153.878 355.526 153.274 354.586 152.334 354.155L132.731 345.179H117.842Z" fill="#2F3D6C"/>
<path d="M117.842 338.557V345.179H132.731L134.314 338.557H117.842Z" fill="#FCBEB7"/>
<path d="M102.876 300.318L82.6372 310.967L67.5416 300.318H102.876Z" fill="#4A5EA3"/>
<path d="M147.677 267.181C146.425 268.017 144.921 268.505 143.303 268.505C138.95 268.505 135.421 264.975 135.421 260.621C135.421 259.422 135.689 258.286 136.168 257.268C141.477 258.211 145.956 262.065 147.677 267.181Z" fill="#4A5EA3"/>
<path d="M47.0195 237.605L41.7916 247.403C40.2521 250.288 40.1884 253.736 41.6206 256.676L42.0701 257.598L46.1348 240.748C46.3904 239.685 46.6869 238.637 47.0195 237.605Z" fill="#FCBEB7"/>
<path d="M63.4494 297.755C63.5521 297.727 63.6547 297.7 63.7564 297.67C66.7823 296.801 69.4813 294.967 71.4125 292.398L84.3611 275.162L83.3442 240.121L96.3955 242.963L101.572 226.63L67.1596 213.057C57.5486 218.416 50.3735 227.208 47.0206 237.604C46.688 238.636 46.3914 239.684 46.1358 240.747L42.0711 257.598L32.1018 298.928L60.0785 298.236C61.2284 298.207 62.3584 298.043 63.4494 297.755Z" fill="#89AEFF"/>
<path d="M83.5211 246.225L66.4365 235.471L83.3443 240.127L83.5211 246.225Z" fill="#4A62D3"/>
<path d="M37.2024 343.991L31.0612 337.999C29.8628 336.829 27.9972 336.689 26.6363 337.664L0.314215 356.535C-0.0241128 356.777 -0.10104 357.248 0.141301 357.585L1.29694 359.198C1.90802 360.05 2.89922 360.547 3.94842 360.527L14.5183 360.323L37.2024 343.991Z" fill="#2F3D6C"/>
<path d="M37.2024 360.322H14.5183L37.2024 343.991V360.322Z" fill="#FCBEB7"/>
<path d="M112.018 331.435L63.7563 297.67C63.6547 297.7 63.552 297.728 63.4494 297.755C62.3584 298.043 61.2284 298.207 60.0775 298.236L32.1008 298.928C32.1008 310.955 39.3245 321.806 50.4199 326.445L78.8328 338.327L37.2023 343.989V360.321H102.917C118.443 360.322 124.74 340.335 112.018 331.435Z" fill="#6277D7"/>
<path d="M114.427 355.461C112.198 354.069 110.716 351.594 110.716 348.771C110.716 344.465 114.169 340.965 118.457 340.89C119.597 346.06 118.032 351.619 114.427 355.461Z" fill="#4A5EA3"/>
<path d="M171.695 191.061L161.779 187.767C161.191 187.571 160.549 187.626 160.002 187.917L153.87 191.184L152.483 191.487C151.965 191.6 151.537 191.962 151.34 192.453L148.928 198.492L107.813 228.871L101.572 226.632L96.3955 242.965L108.461 245.457C111.264 246.035 114.169 245.16 116.186 243.13L154.783 204.268L161.869 200.102C162.522 199.718 162.935 199.027 162.963 198.27L162.992 197.519L163.451 197.076C163.935 196.61 164.181 195.95 164.122 195.281L164.067 194.657C164.583 194.153 164.821 193.43 164.708 192.718L164.608 192.091L171.293 192.873C171.712 192.923 172.111 192.684 172.267 192.292C172.465 191.792 172.204 191.23 171.695 191.061Z" fill="#FCBEB7"/>
<path d="M116.877 242.432L116.185 243.128C114.168 245.158 111.263 246.033 108.46 245.455L107.895 245.338V245.337C108.222 242.768 110.414 240.783 113.071 240.783C114.572 240.784 115.925 241.418 116.877 242.432Z" fill="#F9AFAB"/>
<path d="M323.827 339.737L322.231 346.37L304.829 351.834L307.331 339.737H323.827Z" fill="#FCBEB7"/>
<path d="M382.458 339.737L381.984 347.93L383.068 348.33L383.783 351.838L366.397 346.37L365.963 339.737H382.458Z" fill="#FCBEB7"/>
<path d="M291.407 354.411L305.554 348.329L304.829 351.835L322.231 346.371V351.357C322.231 353.111 321.314 354.701 319.872 355.594L318.376 359.872C318.246 360.242 317.897 360.49 317.505 360.49C316.996 360.49 316.583 360.078 316.583 359.568V356.785L304.689 360.49H292.658C290.908 360.49 289.49 359.072 289.49 357.323C289.49 356.055 290.244 354.911 291.407 354.411Z" fill="#2F3D6C"/>
<path d="M366.382 351.308L366.396 346.321L383.782 351.837L383.067 348.329L397.196 354.452C398.358 354.956 399.109 356.102 399.105 357.368C399.1 359.118 397.677 360.532 395.928 360.526L383.896 360.491L371.598 356.62L371.589 359.534C371.587 360.043 371.174 360.455 370.664 360.453C370.273 360.452 369.924 360.203 369.796 359.833L368.172 355.148C367.059 354.219 366.377 352.823 366.382 351.308Z" fill="#2F3D6C"/>
<path d="M331.925 80.8404V108.291H345.917H358.789H359.677H377.106C377.106 108.291 377.106 87.2116 377.106 74.9587C377.106 61.7781 366.499 59.4859 366.499 59.4859C366.499 59.4859 362.642 53.2932 351.42 53.2932C337.918 53.2932 328.913 61.5651 328.913 71.7758C328.913 76.4649 330.82 79.4842 331.925 80.8404ZM332.153 76.2853C333.861 75.8995 338.661 71.6702 338.661 67.3328C342.419 73.5491 353.904 82.4939 370.982 77.0341V77.0352C371.035 77.0276 371.088 77.0227 371.144 77.0227C375.207 77.0227 375.49 88.3217 368.653 88.9746C368.553 89.3063 368.449 89.6217 368.344 89.9164V108.291H352.922V101.148C351.847 101.452 350.817 101.626 349.873 101.626C343.493 101.626 332.405 91.7857 332.153 76.2853Z" fill="#311643"/>
<path d="M352.921 101.149C351.846 101.452 350.816 101.626 349.872 101.626C343.493 101.626 332.405 91.7857 332.153 76.2844C333.861 75.8986 338.661 71.6693 338.661 67.3319C342.419 73.5482 353.904 82.493 370.982 77.0332V77.0341C371.035 77.0265 371.088 77.0218 371.144 77.0218C375.207 77.0218 375.49 88.3208 368.653 88.9737C368.553 89.3054 368.449 89.6208 368.343 89.9155V102.276L380.422 107.92V122.876H340.285V106.625L352.922 102.775L352.921 101.149Z" fill="#FCBEB7"/>
<path d="M340.284 122.878V106.627L352.921 102.777V101.149C356.494 100.141 360.556 97.6989 363.538 95.4199L340.284 122.878Z" fill="#F9AFAB"/>
<path d="M361.158 89.3718C363.481 89.3718 365.365 87.4881 365.365 85.1645C365.365 82.8409 363.481 80.9573 361.158 80.9573C358.834 80.9573 356.951 82.8409 356.951 85.1645C356.951 87.4881 358.834 89.3718 361.158 89.3718Z" fill="#F49795"/>
<path d="M332.694 81.6719C333.227 84.4974 334.121 87.0737 335.25 89.366C337.475 89.2567 339.244 87.4169 339.244 85.1646C339.244 82.8409 337.361 80.9583 335.038 80.9583C334.171 80.9583 333.365 81.2205 332.694 81.6719Z" fill="#F49795"/>
<path d="M333.848 78.3314C333.848 81.6187 336.523 84.293 339.81 84.293C343.021 84.293 345.647 81.7392 345.766 78.5565C347.561 77.5386 349.135 78.2649 349.63 78.55C349.746 81.7365 352.372 84.293 355.586 84.293C358.873 84.293 361.548 81.6187 361.548 78.3314C361.548 75.0441 358.873 72.3696 355.586 72.3696C352.515 72.3696 349.98 74.7038 349.659 77.6908C348.881 77.3335 347.408 76.9076 345.737 77.6936C345.418 74.7047 342.881 72.3696 339.81 72.3696C336.523 72.3696 333.848 75.0441 333.848 78.3314ZM350.405 78.3314C350.405 75.4737 352.729 73.1499 355.587 73.1499C358.444 73.1499 360.769 75.4746 360.769 78.3314C360.769 81.1882 358.445 83.5136 355.587 83.5136C352.729 83.5136 350.405 81.1882 350.405 78.3314ZM334.629 78.3314C334.629 75.4737 336.953 73.1499 339.811 73.1499C342.668 73.1499 344.993 75.4746 344.993 78.3314C344.993 81.1882 342.669 83.5136 339.811 83.5136C336.953 83.5136 334.629 81.1882 334.629 78.3314Z" fill="white"/>
<path d="M339.806 79.9766C340.276 79.9766 340.657 79.5955 340.657 79.126V77.5369C340.657 77.0674 340.276 76.6863 339.806 76.6863C339.337 76.6863 338.956 77.0674 338.956 77.5369V79.126C338.956 79.5964 339.337 79.9766 339.806 79.9766Z" fill="#311643"/>
<path d="M355.327 79.9766C355.797 79.9766 356.178 79.5955 356.178 79.126V77.5369C356.178 77.0674 355.797 76.6863 355.327 76.6863C354.857 76.6863 354.477 77.0674 354.477 77.5369V79.126C354.477 79.5964 354.857 79.9766 355.327 79.9766Z" fill="#311643"/>
<path d="M349.254 92.2483C350.772 92.2483 351.806 91.6772 352.432 91.1573C353.222 90.5016 353.55 89.7861 353.564 89.7557C353.653 89.559 353.565 89.3278 353.369 89.2394C353.173 89.1511 352.943 89.2386 352.853 89.4334C352.809 89.5303 351.73 91.7913 348.597 91.4293C348.382 91.4045 348.189 91.5574 348.164 91.7713C348.14 91.9851 348.293 92.179 348.507 92.2037C348.768 92.2351 349.017 92.2483 349.254 92.2483Z" fill="#311643"/>
<path d="M379.828 172.931L386.246 200.111C388.1 207.961 388.83 216.034 388.415 224.088L382.458 339.736H365.963L358.92 219.714L323.827 339.736H307.332L336.375 172.93H379.828V172.931Z" fill="#6277D7"/>
<path d="M358.001 115.525C355.072 115.525 352.729 112.704 351.15 109.847H367.853C365.306 112.696 361.816 115.525 358.001 115.525Z" fill="white"/>
<path d="M326.748 115.743C329.323 111.736 333.238 108.773 337.795 107.386L348.865 104.015C348.865 104.48 349.675 107.179 351.15 109.847C352.729 112.704 355.072 115.525 358.001 115.525C361.816 115.525 365.305 112.696 367.853 109.847C370.438 106.956 372.053 104.044 372.053 104.044L382.157 108.726C386.74 110.849 390.023 115.044 390.983 120.002L397.716 154.772H384.023L382.033 141.66L379.828 172.931H336.375L332.428 139.646L322.077 148.956L313.491 136.38L326.748 115.743Z" fill="#FE9ECC"/>
<path d="M313.491 136.38L325.548 145.834L322.076 148.956L313.491 136.38Z" fill="#FF78BA"/>
<path d="M331.679 265.22C336.039 265.22 339.574 261.685 339.574 257.325C339.574 252.964 336.039 249.429 331.679 249.429C327.318 249.429 323.783 252.964 323.783 257.325C323.783 261.685 327.318 265.22 331.679 265.22Z" fill="#4A5EA3"/>
<path d="M373.046 265.22C377.407 265.22 380.942 261.685 380.942 257.325C380.942 252.964 377.407 249.429 373.046 249.429C368.685 249.429 365.15 252.964 365.15 257.325C365.15 261.685 368.685 265.22 373.046 265.22Z" fill="#4A5EA3"/>
<path d="M266.33 103.687L280.576 98.805C281.996 98.3507 283.542 98.5208 284.829 99.2716L290.362 102.503L322.076 148.957L317.719 152.938C314.116 156.229 308.366 155.159 306.188 150.793L285.313 108.948L280.127 109.584C279.344 109.68 278.551 109.533 277.854 109.165L276.024 108.196C275.168 107.744 274.514 106.987 274.19 106.075L273.815 105.017L266.862 105.958C266.296 106.045 265.749 105.707 265.574 105.162C265.374 104.544 265.713 103.884 266.33 103.687Z" fill="#FCBEB7"/>
<path d="M378.258 203.296L381.456 200.42L384.022 154.773H397.716L389.164 201.965L389.173 212.68C389.092 214.135 388.456 215.503 387.395 216.502L386.069 217.754C384.445 219.284 382.275 220.098 380.046 220.012L378.144 219.939C377.469 219.913 377.07 219.172 377.418 218.594L380.18 214.024L379.946 205.49L378.569 210.466C378.337 211.305 377.494 211.82 376.642 211.644V206.924C376.64 205.541 377.228 204.221 378.258 203.296Z" fill="#FCBEB7"/>
<path d="M382.826 113.161C382.826 115.917 385.06 118.152 387.817 118.152C388.714 118.152 389.554 117.916 390.281 117.503C389.105 114.348 386.944 111.649 384.118 109.811C383.316 110.697 382.826 111.871 382.826 113.161Z" fill="#FF78BA"/>
<path d="M379.828 172.931H336.375L335.761 176.459L380.102 174.094L379.828 172.931Z" fill="#4A5EA3"/>
<path d="M307.18 152.295C309.703 155.253 314.245 155.776 317.386 153.223C317.104 150.602 314.885 148.562 312.191 148.562C309.823 148.563 307.823 150.137 307.18 152.295Z" fill="#F9AFAB"/>
</svg>
