<svg width="540" height="417" viewBox="0 0 540 417" fill="none" xmlns="http://www.w3.org/2000/svg">
<path d="M42.2971 398.466H5.05836C2.26468 398.466 0 396.201 0 393.408V217.199C0 214.405 2.26468 212.141 5.05836 212.141H42.2971V398.466Z" fill="#86A2E2"/>
<path d="M149.589 398.466H42.297V212.141H149.589C152.383 212.141 154.647 214.405 154.647 217.199V393.408C154.647 396.201 152.383 398.466 149.589 398.466Z" fill="#AEC3FF"/>
<path d="M142.937 227.641H54.0082V270.621H142.937V227.641Z" fill="#D2DCFF"/>
<path d="M20.3609 398.466H10.1804V416.364H20.3609V398.466Z" fill="#D2DCFF"/>
<path d="M52.4774 398.466H42.297V416.364H52.4774V398.466Z" fill="#D2DCFF"/>
<path d="M116.358 398.466H106.178V416.364H116.358V398.466Z" fill="#D2DCFF"/>
<path d="M148.474 398.466H138.293V416.364H148.474V398.466Z" fill="#D2DCFF"/>
<path d="M116.521 264.692H84.7959C84.0332 264.692 83.4139 264.072 83.4139 263.31V263.229C83.4139 262.466 84.0322 261.847 84.7959 261.847H116.52C117.282 261.847 117.901 262.465 117.901 263.229V263.31C117.901 264.072 117.283 264.692 116.521 264.692Z" fill="#AEC3FF"/>
<path d="M142.937 283.813H54.0082V326.793H142.937V283.813Z" fill="#D2DCFF"/>
<path d="M116.521 320.862H84.7959C84.0332 320.862 83.4139 320.244 83.4139 319.48V319.401C83.4139 318.637 84.0322 318.019 84.7959 318.019H116.52C117.282 318.019 117.901 318.637 117.901 319.401V319.48C117.901 320.244 117.283 320.862 116.521 320.862Z" fill="#AEC3FF"/>
<path d="M142.937 339.985H54.0082V382.965H142.937V339.985Z" fill="#D2DCFF"/>
<path d="M116.521 377.034H84.7959C84.0332 377.034 83.4139 376.415 83.4139 375.652V375.572C83.4139 374.809 84.0322 374.19 84.7959 374.19H116.52C117.282 374.19 117.901 374.809 117.901 375.572V375.652C117.901 376.416 117.283 377.034 116.521 377.034Z" fill="#AEC3FF"/>
<path d="M10.1804 398.466H20.3609V403.075L10.1804 402.572V398.466Z" fill="#AEC3FF"/>
<path d="M42.297 398.466H52.4774V404.661L42.297 404.159V398.466Z" fill="#AEC3FF"/>
<path d="M106.178 398.466H116.358V408.623L106.178 408.12V398.466Z" fill="#AEC3FF"/>
<path d="M148.474 398.466V410.209L138.293 409.705V398.466H148.474Z" fill="#AEC3FF"/>
<path d="M109.809 198.04H125.994C126.791 198.04 127.411 198.737 127.316 199.53L125.947 210.967C125.867 211.636 125.299 212.141 124.624 212.141H111.179C110.504 212.141 109.937 211.637 109.856 210.967L108.487 199.53C108.392 198.738 109.012 198.04 109.809 198.04Z" fill="#D2DCFF"/>
<path d="M123.458 193.373V188.172L120.347 194.084V184.483L117.901 190.529L115.457 184.483V194.084L112.346 188.172V193.373L107.812 186.083L109.809 198.04H117.901H125.994L127.992 186.083L123.458 193.373Z" fill="#6277D7"/>
<path d="M471.445 357.929C484.06 334.833 444.238 323.973 434.637 333.134C425.037 342.296 456.863 384.625 471.445 357.929Z" fill="#FE9ECC"/>
<path d="M488.186 350.879C512.942 350.879 501.738 306.601 491.154 306.601C477.884 306.602 459.585 350.879 488.186 350.879Z" fill="#FE9ECC"/>
<path d="M507.266 366.941C527.675 383.555 545.614 346.38 538.357 335.271C531.1 324.16 483.676 347.737 507.266 366.941Z" fill="#FE9ECC"/>
<path d="M481.241 377.934C477.796 369.963 472.753 362.536 466.255 355.861C455.198 344.506 443.569 339.18 443.452 339.128C443.105 338.972 442.697 339.126 442.541 339.471C442.385 339.817 442.538 340.225 442.884 340.381C442.998 340.433 454.427 345.673 465.302 356.856C471.675 363.409 476.617 370.694 479.988 378.508C480.371 379.394 480.726 380.29 481.069 381.191H482.54C482.134 380.096 481.705 379.009 481.241 377.934Z" fill="#FF78BA"/>
<path d="M490.539 315.681C490.584 315.304 490.314 314.962 489.937 314.916C489.559 314.871 489.218 315.14 489.172 315.517C489.128 315.893 485.656 345.566 485.834 381.19H487.209C487.033 345.659 490.495 316.056 490.539 315.681Z" fill="#FF78BA"/>
<path d="M531.482 340.245C531.271 339.929 530.844 339.844 530.528 340.055C530.429 340.121 520.5 346.8 510.284 357.786C504.72 363.769 498.396 371.79 493.762 381.191H495.3C499.83 372.204 505.908 364.515 511.27 358.746C521.378 347.871 531.194 341.265 531.293 341.199C531.608 340.989 531.693 340.562 531.482 340.245Z" fill="#FF78BA"/>
<path d="M487.21 381.191H485.835H482.541H481.07H461.868C461.129 381.191 460.606 381.911 460.834 382.614L462.046 386.333L462.659 388.215L471.434 415.139C471.672 415.87 472.354 416.365 473.122 416.365H504.752C505.52 416.365 506.202 415.87 506.44 415.139L515.216 388.215L515.829 386.333L517.041 382.614C517.27 381.912 516.747 381.191 516.009 381.191H495.297H493.759H487.21Z" fill="#D2DCFF"/>
<path d="M515.831 386.332L515.218 388.214H462.66L462.046 386.332H515.831Z" fill="#AEC3FF"/>
<path d="M336.84 106.709H170.812C166.141 106.709 162.354 102.922 162.354 98.2501V8.45845C162.354 3.78675 166.141 0 170.812 0H336.84C341.511 0 345.298 3.78675 345.298 8.45845V98.2501C345.298 102.922 341.511 106.709 336.84 106.709Z" fill="#89AEFF"/>
<path d="M207.819 80.6045C207.819 78.7371 209.332 77.2223 211.201 77.2223C198.04 77.2223 187.332 66.515 187.332 53.3539C187.332 40.1928 198.04 29.4855 211.201 29.4855C224.362 29.4855 235.069 40.1928 235.069 53.3539C235.069 51.4865 236.583 49.9717 238.451 49.9717C240.32 49.9717 241.834 51.4854 241.834 53.3539C241.834 36.4633 228.093 22.7221 211.202 22.7221C194.311 22.7221 180.57 36.4644 180.57 53.3539C180.57 70.2445 194.311 83.9854 211.202 83.9854C209.332 83.9865 207.819 82.4719 207.819 80.6045Z" fill="#E1E9FF"/>
<path d="M238.45 49.9727C236.583 49.9727 235.068 51.4865 235.068 53.3549C235.068 66.516 224.361 77.2233 211.2 77.2233C209.332 77.2233 207.818 78.737 207.818 80.6055C207.818 82.474 209.331 83.9875 211.2 83.9875C228.09 83.9875 241.831 70.2465 241.831 53.356C241.833 51.4864 240.319 49.9727 238.45 49.9727Z" fill="#6277D7"/>
<path d="M324.889 33.1821H263.992C262.99 33.1821 262.178 32.3705 262.178 31.3688C262.178 30.3671 262.99 29.5555 263.992 29.5555H324.889C325.891 29.5555 326.703 30.3671 326.703 31.3688C326.703 32.3694 325.891 33.1821 324.889 33.1821Z" fill="#E1E9FF"/>
<path d="M296.165 43.0702H263.992C262.99 43.0702 262.178 42.2589 262.178 41.2572C262.178 40.2555 262.99 39.444 263.992 39.444H296.165C297.166 39.444 297.978 40.2555 297.978 41.2572C297.978 42.2589 297.166 43.0702 296.165 43.0702Z" fill="#E1E9FF"/>
<path d="M284.713 79.6037H263.992C262.99 79.6037 262.178 78.7921 262.178 77.7905C262.178 76.7888 262.99 75.9772 263.992 75.9772H284.713C285.714 75.9772 286.526 76.7888 286.526 77.7905C286.526 78.7921 285.714 79.6037 284.713 79.6037Z" fill="#6277D7"/>
<path d="M189.844 93.621C189.844 82.2094 179.78 72.9637 164.688 72.9637C152.145 72.9637 147.834 79.8853 147.834 79.8853C147.834 79.8853 135.979 82.4475 135.979 97.1796C135.979 110.875 135.979 134.435 135.979 134.435H155.459H156.452H170.839H186.478V103.754C187.714 102.236 189.844 98.861 189.844 93.621ZM166.418 126.985C165.363 126.985 164.212 126.79 163.01 126.451V134.434H145.774V113.897C145.656 113.567 145.54 113.215 145.427 112.844C137.786 112.114 138.102 99.4856 142.643 99.4856C142.705 99.4856 142.765 99.4908 142.825 99.4993V99.4983C161.913 105.601 174.75 95.602 178.95 88.655C178.95 93.503 184.316 98.2301 186.224 98.6614C185.942 115.985 173.548 126.985 166.418 126.985Z" fill="#311643"/>
<path d="M163.01 127.551V126.451C164.212 126.79 165.363 126.985 166.418 126.985C173.548 126.985 185.942 115.986 186.223 98.6601C184.314 98.2289 178.949 93.502 178.949 88.654C174.749 95.602 161.912 105.6 142.824 99.4972V99.4983C142.764 99.4898 142.705 99.4845 142.642 99.4845C138.101 99.4845 137.784 112.113 145.426 112.843C145.539 113.214 145.654 113.565 145.772 113.896V127.711L132.272 134.075V150.737H177.134V133.917L163.01 127.551Z" fill="#FCBEB7"/>
<path d="M177.135 150.738V133.918L163.01 127.551V126.451C159.016 125.324 154.476 122.594 151.142 120.047L177.135 150.738Z" fill="#F9AFAB"/>
<path d="M153.804 113.288C156.401 113.288 158.507 111.183 158.507 108.586C158.507 105.988 156.401 103.883 153.804 103.883C151.207 103.883 149.102 105.988 149.102 108.586C149.102 111.183 151.207 113.288 153.804 113.288Z" fill="#F49795"/>
<path d="M185.619 104.681C185.023 107.839 184.024 110.719 182.762 113.281C180.275 113.158 178.297 111.102 178.297 108.585C178.297 105.987 180.402 103.882 182.998 103.882C183.968 103.883 184.87 104.178 185.619 104.681Z" fill="#F49795"/>
<path d="M177.665 94.285C174.232 94.285 171.397 96.8949 171.04 100.236C169.173 99.3572 167.526 99.8332 166.656 100.233C166.297 96.894 163.464 94.285 160.032 94.285C156.358 94.285 153.368 97.2741 153.368 100.948C153.368 104.623 156.358 107.612 160.032 107.612C163.624 107.612 166.559 104.754 166.689 101.193C167.242 100.874 169 100.062 171.007 101.2C171.14 104.758 174.075 107.612 177.664 107.612C181.338 107.612 184.327 104.623 184.327 100.948C184.328 97.273 181.339 94.285 177.665 94.285ZM160.032 106.74C156.839 106.74 154.241 104.141 154.241 100.947C154.241 97.7542 156.839 95.1561 160.032 95.1561C163.226 95.1561 165.824 97.7542 165.824 100.947C165.824 104.141 163.226 106.74 160.032 106.74ZM177.665 106.74C174.472 106.74 171.874 104.141 171.874 100.947C171.874 97.7542 174.472 95.1561 177.665 95.1561C180.859 95.1561 183.457 97.7542 183.457 100.947C183.457 104.141 180.859 106.74 177.665 106.74Z" fill="white"/>
<path d="M177.669 105.723C177.144 105.723 176.719 105.297 176.719 104.772V102.996C176.719 102.471 177.144 102.045 177.669 102.045C178.194 102.045 178.62 102.471 178.62 102.996V104.772C178.62 105.297 178.195 105.723 177.669 105.723Z" fill="#311643"/>
<path d="M160.321 105.723C159.796 105.723 159.37 105.297 159.37 104.772V102.996C159.37 102.471 159.796 102.045 160.321 102.045C160.846 102.045 161.272 102.471 161.272 102.996V104.772C161.273 105.297 160.847 105.723 160.321 105.723Z" fill="#311643"/>
<path d="M167.111 116.504C165.413 116.504 164.257 115.865 163.557 115.284C162.675 114.551 162.308 113.751 162.292 113.717C162.194 113.497 162.291 113.24 162.511 113.14C162.73 113.042 162.988 113.14 163.087 113.357C163.137 113.465 164.342 115.993 167.845 115.588C168.085 115.56 168.3 115.731 168.328 115.971C168.356 116.21 168.185 116.427 167.944 116.455C167.652 116.488 167.374 116.504 167.111 116.504Z" fill="#311643"/>
<path d="M195.618 393.126L197.401 400.539L216.853 406.647L214.055 393.126H195.618Z" fill="#FCBEB7"/>
<path d="M130.084 393.126L130.614 402.283L129.403 402.73L128.604 406.65L148.036 400.539L148.521 393.126H130.084Z" fill="#FCBEB7"/>
<path d="M231.854 409.526L216.041 402.729L216.852 406.647L197.401 400.54V406.113C197.401 408.073 198.426 409.85 200.038 410.849L201.711 415.631C201.855 416.044 202.245 416.321 202.684 416.321C203.253 416.321 203.714 415.86 203.714 415.291V412.181L217.008 416.321H230.456C232.411 416.321 233.996 414.736 233.996 412.781C233.996 411.365 233.154 410.086 231.854 409.526Z" fill="#2F3D6C"/>
<path d="M148.053 406.059L148.037 400.485L128.605 406.65L129.403 402.73L113.611 409.574C112.313 410.137 111.474 411.418 111.478 412.833C111.484 414.788 113.074 416.369 115.029 416.363L128.477 416.323L142.224 411.997L142.233 415.254C142.235 415.823 142.697 416.283 143.267 416.281C143.704 416.28 144.094 416.001 144.238 415.588L146.052 410.351C147.297 409.312 148.058 407.753 148.053 406.059Z" fill="#2F3D6C"/>
<path d="M133.026 206.683L125.851 237.064C123.78 245.838 122.963 254.861 123.427 263.863L130.085 393.125H148.523L156.395 258.975L195.619 393.125H214.056L181.593 206.682H133.026V206.683Z" fill="#6277D7"/>
<path d="M157.421 142.52C160.695 142.52 163.313 139.367 165.079 136.174H146.409C149.257 139.359 153.156 142.52 157.421 142.52Z" fill="white"/>
<path d="M189.597 145.062C187.281 140.431 183.435 136.743 178.71 134.624L167.631 129.655C167.631 130.176 166.726 133.192 165.077 136.174C163.312 139.367 160.694 142.52 157.42 142.52C153.155 142.52 149.255 139.359 146.408 136.174C143.518 132.943 141.714 129.688 141.714 129.688L128.86 135.643C123.598 138.081 119.724 142.771 118.325 148.398L110.812 178.61C109.587 183.537 110.998 188.746 114.542 192.381C120.457 190.306 131.564 185.982 131.564 185.982L133.023 206.684H181.591L193.657 153.182L189.597 145.062Z" fill="#FE9ECC"/>
<path d="M157.9 147.062C155.2 147.062 152.453 146.24 149.733 144.62C147.575 143.333 145.429 141.544 143.356 139.298C139.837 135.488 137.693 131.599 137.672 131.561L138.393 131.226C138.414 131.265 140.492 135.034 143.95 138.772C145.97 140.958 148.055 142.697 150.147 143.942C152.738 145.486 155.347 146.267 157.9 146.267C160.309 146.267 162.479 145.463 164.35 143.878C165.863 142.595 167.191 140.799 168.295 138.54C170.192 134.657 170.71 131.077 170.716 131.037L171.462 131.372C171.439 131.537 170.963 134.877 169.015 138.871C167.864 141.234 166.469 143.119 164.87 144.476C162.851 146.192 160.506 147.062 157.9 147.062Z" fill="white"/>
<path d="M186.842 309.837C191.716 309.837 195.667 305.885 195.667 301.011C195.667 296.137 191.716 292.186 186.842 292.186C181.968 292.186 178.017 296.137 178.017 301.011C178.017 305.885 181.968 309.837 186.842 309.837Z" fill="#4A5EA3"/>
<path d="M140.605 309.837C145.479 309.837 149.43 305.885 149.43 301.011C149.43 296.137 145.479 292.186 140.605 292.186C135.731 292.186 131.78 296.137 131.78 301.011C131.78 305.885 135.731 309.837 140.605 309.837Z" fill="#4A5EA3"/>
<path d="M128.937 139.567C128.937 142.679 126.414 145.204 123.3 145.204C122.05 145.204 120.895 144.797 119.96 144.108C121.717 140.766 124.438 137.994 127.803 136.175C128.515 137.118 128.937 138.293 128.937 139.567Z" fill="#FF78BA"/>
<path d="M161.918 213.677L199.292 212.265C201.256 212.191 202.954 210.877 203.52 208.994L219.86 154.524C220.207 153.367 219.313 152.212 218.106 152.257L180.311 153.685C178.6 153.75 177.119 154.895 176.627 156.535L160.166 211.41C159.818 212.568 160.712 213.722 161.918 213.677Z" fill="#4A5EA3"/>
<path d="M202.195 185.066L208.734 191.609L209.85 187.891L202.195 185.066Z" fill="#2F3D6C"/>
<path d="M211.274 174.938L201.852 175.559C201.156 175.605 200.618 176.187 200.624 176.884L199.687 176.943C199.079 176.981 198.584 177.448 198.512 178.055L198.397 179.034H198.392C197.696 179.043 197.137 179.615 197.146 180.312C197.153 180.824 197.467 181.281 197.943 181.47L200.053 182.308C200.048 183.383 200.672 184.361 201.647 184.812L208.204 187.843C209.157 188.284 210.215 188.446 211.255 188.311C213.594 188.007 215.487 186.262 215.98 183.955L216.388 182.048C216.826 179.992 216.19 177.855 214.698 176.376C213.785 175.472 212.558 174.957 211.274 174.938Z" fill="#FCBEB7"/>
<path d="M164.441 138.598L170.871 154.315C171.234 155.202 171.764 156.005 172.417 156.656L173.562 157.796C173.827 158.06 174.198 157.908 174.202 157.533L174.219 155.919C174.229 154.996 174.044 154.051 173.682 153.164L167.252 137.448C166.861 136.491 165.914 135.973 165.138 136.291C164.362 136.608 164.05 137.642 164.441 138.598Z" fill="#6277D7"/>
<path d="M172.895 147.961L169.366 143.099C168.911 142.472 168.207 142.073 167.436 142.003L161.516 141.466C160.709 141.393 159.909 141.652 159.298 142.183L156.214 144.863C155.769 145.25 155.391 145.707 155.095 146.217L151.311 152.221L115.438 181.204C111.899 184.064 111.587 189.347 114.763 192.604C117.922 195.844 123.175 195.686 126.135 192.263L156.429 157.224L162.8 153.307L167.502 153.468C168.596 153.506 169.558 152.757 169.791 151.688L170.049 151.382C170.494 150.854 170.674 150.152 170.537 149.475L170.269 148.149L171.789 149.13C172.011 149.274 172.288 149.301 172.533 149.204C173.03 149.009 173.21 148.394 172.895 147.961Z" fill="#FCBEB7"/>
<path d="M131.566 185.982L144.84 170.629L132.071 193.139L131.566 185.982Z" fill="#FF78BA"/>
<path d="M161.918 213.677L183.862 219.72L182.673 212.893L161.918 213.677Z" fill="#2F3D6C"/>
<path d="M187.637 141.85C186.944 142.139 186.182 142.298 185.383 142.298C182.145 142.298 179.521 139.673 179.521 136.435C179.521 135.971 179.575 135.52 179.677 135.086C182.837 136.688 185.561 139.01 187.637 141.85Z" fill="#FF78BA"/>
<path d="M120.458 193.756C123.47 193.756 125.911 191.314 125.911 188.303C125.911 185.292 123.47 182.851 120.458 182.851C117.447 182.851 115.006 185.292 115.006 188.303C115.006 191.314 117.447 193.756 120.458 193.756Z" fill="#F9AFAB"/>
<path d="M328.366 100.811C329.691 116.884 341.367 126.96 348.219 126.96C349.247 126.96 350.367 126.776 351.535 126.456V134.472H368.916V114.09C369.076 113.669 369.232 113.201 369.385 112.702C377.091 111.966 376.771 99.2317 372.193 99.2317C371.36 99.2317 370.803 100.019 370.453 100.811L369.316 101.948V96.1949C369.316 96.1949 366.759 96.4348 361.724 88.7634C359.552 92.0595 342.226 97.2336 328.322 94.9169C328.321 94.9158 328.286 97.7776 328.366 100.811Z" fill="#FCBEB7"/>
<path d="M349.417 73.1006C361.404 73.1006 363.801 79.4932 363.801 79.4932C368.916 79.4932 376.747 88.8431 372.031 99.2307L372.007 99.255L369.314 101.948V96.1949C369.314 96.1949 366.757 96.4349 361.722 88.7634C359.55 92.0595 342.224 97.2336 328.32 94.9169C328.32 94.9169 328.284 97.7786 328.364 100.811C328.364 100.814 328.364 100.818 328.364 100.821C323.172 85.7977 333.595 73.1006 349.417 73.1006Z" fill="#311643"/>
<path d="M354.571 102.561C355.101 102.561 355.53 102.132 355.53 101.601V99.8105C355.53 99.2805 355.101 98.8515 354.571 98.8515C354.041 98.8515 353.612 99.2805 353.612 99.8105V101.601C353.613 102.132 354.042 102.561 354.571 102.561Z" fill="#311643"/>
<path d="M336.792 102.561C337.322 102.561 337.751 102.132 337.751 101.601V99.8105C337.751 99.2805 337.322 98.8515 336.792 98.8515C336.262 98.8515 335.833 99.2805 335.833 99.8105V101.601C335.834 102.132 336.263 102.561 336.792 102.561Z" fill="#311643"/>
<path d="M347.521 116.392C349.233 116.392 350.398 115.749 351.104 115.162C351.994 114.423 352.364 113.617 352.38 113.583C352.48 113.362 352.381 113.102 352.16 113.002C351.939 112.902 351.68 113 351.579 113.22C351.529 113.329 350.314 115.878 346.782 115.469C346.541 115.442 346.323 115.613 346.294 115.856C346.266 116.098 346.439 116.315 346.68 116.342C346.974 116.376 347.255 116.392 347.521 116.392Z" fill="#311643"/>
<path d="M360.938 113.149C363.557 113.149 365.68 111.026 365.68 108.407C365.68 105.788 363.557 103.666 360.938 103.666C358.32 103.666 356.197 105.788 356.197 108.407C356.197 111.026 358.32 113.149 360.938 113.149Z" fill="#F49795"/>
<path d="M328.859 104.471C329.46 107.655 330.467 110.558 331.741 113.143C334.249 113.019 336.243 110.946 336.243 108.407C336.243 105.789 334.12 103.667 331.502 103.667C330.523 103.667 329.614 103.963 328.859 104.471Z" fill="#F49795"/>
<path d="M330.073 100.706C330.073 104.411 333.088 107.425 336.792 107.425C340.412 107.425 343.37 104.547 343.504 100.96C345.514 99.8222 347.303 100.639 347.858 100.955C347.99 104.545 350.949 107.426 354.57 107.426C358.275 107.426 361.289 104.412 361.289 100.707C361.289 97.002 358.274 93.9885 354.57 93.9885C351.11 93.9885 348.252 96.6186 347.891 99.9848C347.014 99.5822 345.353 99.102 343.471 99.9879C343.111 96.6206 340.253 93.9885 336.791 93.9885C333.088 93.9874 330.073 97.0009 330.073 100.706ZM348.732 100.706C348.732 97.4864 351.352 94.8661 354.572 94.8661C357.793 94.8661 360.413 97.4853 360.413 100.706C360.413 103.927 357.793 106.546 354.572 106.546C351.352 106.546 348.732 103.927 348.732 100.706ZM330.952 100.706C330.952 97.4864 333.571 94.8661 336.792 94.8661C340.012 94.8661 342.632 97.4853 342.632 100.706C342.632 103.927 340.012 106.546 336.792 106.546C333.572 106.546 330.952 103.927 330.952 100.706Z" fill="white"/>
<path d="M351.535 134.471V126.455C355.466 125.374 359.94 122.728 363.303 120.206L351.535 134.471Z" fill="#F9AFAB"/>
<path d="M309.983 393.207H328.391L346.245 298.255L359.342 257.101L391.049 393.207H409.456L392.305 240.511H324.301L309.983 393.207Z" fill="#6277D7"/>
<path d="M326.929 400.608V413.617C326.929 415.134 325.699 416.363 324.182 416.363H287.286C286.936 416.363 286.651 416.078 286.651 415.727V413.223C286.651 412.127 287.278 411.129 288.263 410.653L309.067 400.608H326.929Z" fill="#2F3D6C"/>
<path d="M393.051 400.608V413.617C393.051 415.134 394.281 416.363 395.798 416.363H432.693C433.044 416.363 433.328 416.078 433.328 415.727V413.223C433.328 412.127 432.702 411.129 431.716 410.653L410.912 400.608H393.051Z" fill="#2F3D6C"/>
<path d="M328.39 393.208L327.004 400.609H309.067L309.983 393.208H328.39Z" fill="#FCBEB7"/>
<path d="M409.456 393.208L410.912 400.609H393.051L391.05 393.208H409.456Z" fill="#FCBEB7"/>
<path d="M392.673 243.786L323.627 247.686L324.301 240.511H392.305" fill="#4A5EA3"/>
<path d="M351.558 127.632L325.248 139.051C323.321 139.88 321.678 141.253 320.518 143.001L309.984 158.875L324.838 171.982L328.807 168.592L324.302 240.512H392.306L388.139 193.617L389.063 168.592L392.593 172.109L408.285 160.046L399.853 146.305C397.768 142.906 394.753 140.174 391.166 138.433L368.909 127.631C368.908 127.632 358.814 134.255 351.558 127.632Z" fill="#89AEFF"/>
<path d="M345.967 130.058C349.655 133.149 354.265 134.83 359.134 134.83C364.259 134.83 369.098 132.965 372.876 129.557L372.19 129.224C368.574 132.396 363.987 134.127 359.133 134.127C354.55 134.127 350.206 132.584 346.691 129.743L345.967 130.058Z" fill="white"/>
<path d="M392.009 140.677C392.009 143.905 394.626 146.521 397.854 146.521C398.531 146.521 399.179 146.406 399.783 146.195C397.917 143.196 395.324 140.723 392.252 139.003C392.095 139.533 392.009 140.095 392.009 140.677Z" fill="#4A62D3"/>
<path d="M318.957 145.353C319.756 145.762 320.661 145.993 321.62 145.993C324.848 145.993 327.465 143.376 327.465 140.149C327.465 139.477 327.352 138.83 327.142 138.228L325.248 139.051C323.322 139.88 321.677 141.254 320.518 143.001L318.957 145.353Z" fill="#4A62D3"/>
<path d="M388.477 310.055C393.343 310.055 397.288 306.11 397.288 301.244C397.288 296.378 393.343 292.433 388.477 292.433C383.61 292.433 379.665 296.378 379.665 301.244C379.665 306.11 383.61 310.055 388.477 310.055Z" fill="#4A5EA3"/>
<path d="M329.696 310.055C334.562 310.055 338.507 306.11 338.507 301.244C338.507 296.378 334.562 292.433 329.696 292.433C324.83 292.433 320.885 296.378 320.885 301.244C320.885 306.11 324.83 310.055 329.696 310.055Z" fill="#4A5EA3"/>
<path d="M234.845 141.673L235.583 141.55L235.698 141.099C235.915 140.248 236.654 139.634 237.529 139.574L247.881 138.875L255.082 135.947L251.062 130.93C250.396 130.098 250.49 128.894 251.276 128.174L259.756 134.709C260.588 135.351 261.279 136.157 261.784 137.077L264.439 141.913L264.425 141.93L303.204 169.034L309.985 158.874L324.839 171.981L306.245 188.423C305.142 189.375 303.503 189.358 302.421 188.383L258.772 149.108L250.417 149.902C248.533 150.082 246.631 149.892 244.819 149.345L240.384 148.004C239.631 147.777 239.238 146.949 239.538 146.222L236.379 145.614C235.788 145.5 235.342 145.015 235.279 144.417L235.225 143.906H235.032C234.412 143.906 233.908 143.403 233.908 142.782C233.905 142.233 234.302 141.764 234.845 141.673Z" fill="#FCBEB7"/>
<path d="M377.19 235.022L384.106 231.935C384.585 231.722 384.957 231.322 385.135 230.83L386.138 228.069L382.643 228.926L381.529 231.319C381.154 232.125 380.206 232.487 379.389 232.135L380.845 227.742C381.117 227.043 381.641 226.47 382.315 226.14L389.618 222.549L402.216 181.685L392.591 172.109L408.283 160.046L417.459 176.014C418.72 178.21 418.874 180.871 417.874 183.196L392.408 241.432L387.354 241.666C386.746 241.693 386.173 241.386 385.861 240.865L385.31 239.946L382.65 240.164C382.081 240.21 381.528 239.96 381.187 239.5L380.561 238.655L380.188 238.754C379.17 239.023 378.1 238.557 377.602 237.629L375.755 238.245C375.338 236.963 375.957 235.572 377.19 235.022Z" fill="#FCBEB7"/>
<path d="M412.1 179.708C412.1 182.585 414.155 184.984 416.88 185.512L417.875 183.196C418.876 180.871 418.722 178.209 417.46 176.014L416.324 174.038C413.881 174.765 412.1 177.029 412.1 179.708Z" fill="#F9AFAB"/>
<path d="M298.225 184.606L302.419 188.384C303.501 189.36 305.14 189.377 306.243 188.424L310.352 184.876C309.166 182.704 306.861 181.229 304.211 181.229C301.672 181.229 299.45 182.581 298.225 184.606Z" fill="#F9AFAB"/>
</svg>
