<svg width="196" height="167" viewBox="0 0 196 167" fill="none" xmlns="http://www.w3.org/2000/svg">
<path d="M106.514 107.217V106.67C106.514 106.501 106.376 106.364 106.207 106.364H93.5092C92.8687 106.364 92.3494 106.883 92.3494 107.524V108.457C92.3494 109.098 92.8687 109.617 93.5092 109.617H106.207C106.376 109.617 106.514 109.48 106.514 109.311V108.764C106.514 108.595 106.376 108.458 106.207 108.458H93.9756C93.7179 108.458 93.5088 108.249 93.5088 107.991C93.5088 107.734 93.7179 107.525 93.9756 107.525H106.207C106.376 107.524 106.514 107.387 106.514 107.217Z" fill="#6277D7"/>
<path d="M105.965 107.524V108.457H93.9756C93.7179 108.457 93.5089 108.248 93.5089 107.991C93.5089 107.733 93.7179 107.525 93.9756 107.525H105.965V107.524Z" fill="#D2DCFF"/>
<path d="M105.606 103.964V103.417C105.606 103.248 105.469 103.111 105.3 103.111H94.4162C93.7757 103.111 93.2563 103.63 93.2563 104.271V105.204C93.2563 105.844 93.7757 106.364 94.4162 106.364H105.3C105.469 106.364 105.606 106.227 105.606 106.057V105.51C105.606 105.341 105.469 105.204 105.3 105.204H94.8829C94.6252 105.204 94.4162 104.995 94.4162 104.738C94.4162 104.48 94.6252 104.271 94.8829 104.271H105.3C105.469 104.271 105.606 104.134 105.606 103.964Z" fill="#FE9ECC"/>
<path d="M105.203 104.271V105.204H94.8829C94.6252 105.204 94.4161 104.995 94.4161 104.737C94.4161 104.48 94.6252 104.271 94.8829 104.271H105.203Z" fill="#FFD9E8"/>
<path d="M96.3812 111.764L89.6527 166.164H88.3167L95.0452 111.764H96.3812Z" fill="#D2DCFF"/>
<path d="M114.061 166.164H112.725L106.969 119.624L105.996 111.764H107.332L108.291 119.512L114.061 166.164Z" fill="#D2DCFF"/>
<path d="M29.3853 111.764L27.5853 126.318L22.6568 166.164H21.3208L26.235 126.432L28.0492 111.764H29.3853Z" fill="#D2DCFF"/>
<path d="M47.0648 166.164H45.7288L40.6642 125.216L39.0004 111.764H40.3364L41.9863 125.104L47.0648 166.164Z" fill="#D2DCFF"/>
<path d="M28.0492 111.764H29.3852L27.5853 126.318L26.235 126.432L28.0492 111.764Z" fill="#AEC3FF"/>
<path d="M40.3364 111.764L41.9863 125.104L40.6642 125.216L39.0004 111.764H40.3364Z" fill="#AEC3FF"/>
<path d="M108.291 119.512L106.969 119.624L105.996 111.764H107.332L108.291 119.512Z" fill="#AEC3FF"/>
<path d="M111.053 111.764H42.7408V109.617H111.053C111.546 109.617 111.946 110.017 111.946 110.51V110.871C111.946 111.364 111.546 111.764 111.053 111.764Z" fill="#D2DCFF"/>
<path d="M42.7409 111.764H24.6663C24.173 111.764 23.7732 111.364 23.7732 110.871V110.51C23.7732 110.017 24.173 109.617 24.6663 109.617H42.7409V111.764Z" fill="#86A2E2"/>
<path d="M42.7258 104.397H48.7179C49.0136 104.397 49.2424 104.655 49.2076 104.948L48.7009 109.183C48.6712 109.431 48.461 109.617 48.2112 109.617H43.2329C42.9831 109.617 42.7729 109.431 42.7432 109.183L42.2365 104.948C42.2013 104.655 42.4305 104.397 42.7258 104.397Z" fill="#D2DCFF"/>
<path d="M47.779 102.669V100.743L46.627 102.932V99.3777L45.7221 101.616L44.8167 99.3777V102.932L43.6648 100.743V102.669L41.9863 99.9699L42.7258 104.397H45.7221H48.7179L49.4574 99.9699L47.779 102.669Z" fill="#6277D7"/>
<path d="M90.9912 104.117H53.5032L57.6827 81.5869H95.1707L90.9912 104.117Z" fill="#D2DCFF"/>
<path d="M72.0635 94.1661H76.2739L81.8171 109.617H74.462L72.0635 94.1661Z" fill="#86A2E2"/>
<path d="M71.9119 108.625H59.3987C59.1707 108.625 58.9858 108.81 58.9858 109.038V109.205C58.9858 109.433 59.1707 109.617 59.3987 109.617H71.9119C72.1399 109.617 72.3248 109.432 72.3248 109.205V109.038C72.3244 108.81 72.1395 108.625 71.9119 108.625Z" fill="#86A2E2"/>
<path d="M72.0635 94.1661V104.117H73.6081L72.0635 94.1661Z" fill="#AEC3FF"/>
<path d="M130.428 132.547L134.483 166.164H135.813L131.758 132.547H130.428Z" fill="#D2DCFF"/>
<path d="M148.347 132.546L148.804 136.327L152.402 166.164H153.732L150.116 136.179L149.677 132.546H148.347Z" fill="#D2DCFF"/>
<path d="M130.428 166.164H131.758L132.319 161.514L132.984 156.002L135.171 137.868L135.813 132.546H134.483L133.822 138.02L132.319 150.488L131.654 156.001L130.428 166.164Z" fill="#D2DCFF"/>
<path d="M112.509 166.164H113.839L116.986 140.071H116.986L117.893 132.546H116.563L115.638 140.216L112.509 166.164Z" fill="#D2DCFF"/>
<path d="M149.613 110.073H148.283V130.409H149.613V110.073Z" fill="#D2DCFF"/>
<path d="M131.541 110.073H130.211V130.409H131.541V110.073Z" fill="#D2DCFF"/>
<path d="M116.005 130.409H134.278C133.687 130.409 133.209 130.887 133.209 131.477C133.209 132.068 133.687 132.546 134.278 132.546H116.005C115.415 132.546 114.936 132.068 114.936 131.477C114.936 130.887 115.415 130.409 116.005 130.409Z" fill="#D2DCFF"/>
<path d="M133.209 131.477C133.209 130.887 133.688 130.409 134.278 130.409H148.255H150.055C150.645 130.409 151.124 130.887 151.124 131.477C151.124 132.068 150.645 132.546 150.055 132.546H148.255H134.278C133.687 132.546 133.209 132.068 133.209 131.477Z" fill="#86A2E2"/>
<path d="M129.124 94.7699H150.699C151.522 94.7699 152.189 95.437 152.189 96.2592V108.584C152.189 109.406 151.522 110.074 150.699 110.074H129.124C128.302 110.074 127.635 109.406 127.635 108.584V96.2592C127.635 95.4366 128.302 94.7699 129.124 94.7699Z" fill="#D2DCFF"/>
<path d="M148.347 132.546L148.803 136.327C149.284 136.273 149.723 136.223 150.115 136.179L149.677 132.546H148.347Z" fill="#AEC3FF"/>
<path d="M134.483 132.546L133.823 138.021C134.274 137.97 134.724 137.919 135.171 137.869L135.813 132.546H134.483Z" fill="#AEC3FF"/>
<path d="M115.638 140.216C116.067 140.17 116.517 140.122 116.986 140.071H116.986L117.893 132.546H116.563L115.638 140.216Z" fill="#AEC3FF"/>
<path d="M149.613 110.073H148.283V112.882L149.613 112.735V110.073Z" fill="#AEC3FF"/>
<path d="M130.211 110.073V114.882L131.541 114.735V110.073H130.211Z" fill="#AEC3FF"/>
<path d="M123.01 78.2625C123.503 84.2523 127.855 88.0075 130.408 88.0075C130.791 88.0075 131.209 87.939 131.644 87.8194V90.8069H138.121V83.2112C138.181 83.054 138.239 82.8799 138.296 82.6942C141.168 82.4199 141.049 77.6743 139.342 77.6743C139.032 77.6743 138.825 77.9676 138.694 78.2629L138.27 78.6865V76.5425C138.27 76.5425 137.318 76.632 135.441 73.7731C134.632 75.0011 128.175 76.9297 122.993 76.066C122.993 76.066 122.98 77.1323 123.01 78.2625Z" fill="#FCBEB7"/>
<path d="M130.855 67.9361C135.322 67.9361 136.215 70.3184 136.215 70.3184C138.122 70.3184 141.04 73.8028 139.283 77.6739L139.273 77.683L138.27 78.6865V76.5425C138.27 76.5425 137.317 76.632 135.441 73.7731C134.631 75.0011 128.174 76.9297 122.993 76.0659C122.993 76.0659 122.979 77.1323 123.009 78.2625C123.009 78.2637 123.009 78.2649 123.009 78.2661C121.074 72.6674 124.959 67.9361 130.855 67.9361Z" fill="#311643"/>
<path d="M132.776 79.8978C132.973 79.8978 133.133 79.7379 133.133 79.5403V78.8729C133.133 78.6754 132.973 78.5155 132.776 78.5155C132.578 78.5155 132.418 78.6754 132.418 78.8729V79.5403C132.418 79.7379 132.579 79.8978 132.776 79.8978Z" fill="#311643"/>
<path d="M126.15 79.8978C126.347 79.8978 126.507 79.7379 126.507 79.5403V78.8729C126.507 78.6754 126.347 78.5155 126.15 78.5155C125.952 78.5155 125.792 78.6754 125.792 78.8729V79.5403C125.792 79.7379 125.952 79.8978 126.15 79.8978Z" fill="#311643"/>
<path d="M130.149 84.069C130.786 84.069 131.22 83.8291 131.484 83.6106C131.815 83.3351 131.953 83.0346 131.959 83.0219C131.996 82.9396 131.96 82.8426 131.877 82.8054C131.795 82.7682 131.698 82.805 131.661 82.887C131.642 82.9274 131.189 83.8774 129.873 83.725C129.783 83.7151 129.702 83.7788 129.691 83.8691C129.681 83.9594 129.745 84.0401 129.835 84.0504C129.945 84.0631 130.049 84.069 130.149 84.069Z" fill="#311643"/>
<path d="M135.148 82.8608C136.124 82.8608 136.915 82.0697 136.915 81.0937C136.915 80.1178 136.124 79.3265 135.148 79.3265C134.172 79.3265 133.381 80.1178 133.381 81.0937C133.381 82.0697 134.172 82.8608 135.148 82.8608Z" fill="#F49795"/>
<path d="M123.193 79.6266C123.417 80.8134 123.793 81.8953 124.267 82.8584C125.202 82.8121 125.945 82.0398 125.945 81.0937C125.945 80.1179 125.154 79.3269 124.178 79.3269C123.814 79.3265 123.475 79.4374 123.193 79.6266Z" fill="#F49795"/>
<path d="M123.646 78.2237C123.646 79.6045 124.77 80.7275 126.15 80.7275C127.499 80.7275 128.602 79.6551 128.651 78.3183C129.4 77.8944 130.067 78.1987 130.274 78.3163C130.323 79.6543 131.426 80.7275 132.775 80.7275C134.156 80.7275 135.279 79.6045 135.279 78.2237C135.279 76.8429 134.156 75.7199 132.775 75.7199C131.486 75.7199 130.421 76.7001 130.286 77.9546C129.959 77.8045 129.341 77.6256 128.639 77.9557C128.505 76.7004 127.44 75.7199 126.15 75.7199C124.769 75.7199 123.646 76.8429 123.646 78.2237ZM130.599 78.2237C130.599 77.0235 131.576 76.0472 132.776 76.0472C133.976 76.0472 134.952 77.0235 134.952 78.2237C134.952 79.4236 133.976 80.4002 132.776 80.4002C131.576 80.4002 130.599 79.424 130.599 78.2237ZM123.973 78.2237C123.973 77.0235 124.95 76.0472 126.15 76.0472C127.35 76.0472 128.326 77.0235 128.326 78.2237C128.326 79.4236 127.35 80.4002 126.15 80.4002C124.95 80.4002 123.973 79.424 123.973 78.2237Z" fill="white"/>
<path d="M131.644 90.8069V87.8194C133.109 87.4168 134.777 86.4307 136.03 85.4905L131.644 90.8069Z" fill="#F9AFAB"/>
<path d="M113.241 141.877L114.594 141.692L115.874 131.074H114.545L113.241 141.877Z" fill="#EBEDF4"/>
<path d="M116.833 101.302L115.659 103.553H121.919L116.833 101.302Z" fill="#FCBEB7"/>
<path d="M128.824 160.293V165.14C128.824 165.706 128.366 166.164 127.8 166.164H114.05C113.92 166.164 113.814 166.058 113.814 165.927V165.034C113.814 164.603 114.065 164.211 114.457 164.031L122.407 160.292H128.824V160.293Z" fill="#2F3D6C"/>
<path d="M128.824 157.535L128.82 160.293H122.408L121.964 157.535H128.824Z" fill="#FCBEB7"/>
<path d="M131.656 87.9892L122.949 91.9217C121.752 92.4624 120.778 93.3994 120.191 94.5747L116.833 101.301L121.919 103.553L121.498 118.421H146.841L145.734 104.535L150.318 104.565V96.9669C150.318 94.6135 148.904 92.4909 146.732 91.584L138.122 87.9888C138.121 87.9892 134.36 90.4577 131.656 87.9892Z" fill="#89AEFF"/>
<path d="M129.572 88.8937C130.947 90.0453 132.665 90.6724 134.479 90.6724C136.389 90.6724 138.272 89.9099 139.68 88.64L139.403 88.5244C138.055 89.7065 136.288 90.4103 134.478 90.4103C132.771 90.4103 131.152 89.8351 129.842 88.7766L129.572 88.8937Z" fill="white"/>
<path d="M115.33 160.293V165.14C115.33 165.706 114.872 166.164 114.307 166.164H100.557C100.426 166.164 100.32 166.058 100.32 165.927V165.034C100.32 164.603 100.571 164.211 100.963 164.031L108.914 160.292H115.33V160.293Z" fill="#2F3D6C"/>
<path d="M115.33 157.535L115.327 160.293H108.914L108.471 157.535H115.33Z" fill="#FCBEB7"/>
<path d="M133.348 118.422L133.348 118.681C133.353 125.193 128.075 130.475 121.563 130.475H116.088L115.33 157.534H108.47L103.412 125.271C102.848 121.673 105.63 118.421 109.272 118.421H133.348V118.422Z" fill="#6277D7"/>
<path d="M103.34 124.366C103.931 125.231 104.925 125.798 106.051 125.798C107.864 125.798 109.334 124.328 109.334 122.515C109.334 120.773 107.978 119.349 106.265 119.238C104.496 120.282 103.331 122.213 103.34 124.366Z" fill="#4A5EA3"/>
<path d="M116.834 124.24L116.088 130.475H120.58L116.834 124.24Z" fill="#4A5EA3"/>
<path d="M146.842 118.422V118.681C146.847 125.193 141.569 130.475 135.056 130.475H129.581L128.824 157.534H121.964L116.906 125.271C116.342 121.673 119.123 118.421 122.765 118.421H146.842V118.422Z" fill="#6277D7"/>
<path d="M150.317 104.565L150.073 112.986C150.008 115.262 148.144 117.073 145.867 117.073H131.207L130.223 113.645L143.154 111.513L143.245 104.519L150.317 104.565Z" fill="#FCBEB7"/>
<path d="M145.97 115.322C145.97 115.987 146.269 116.583 146.741 116.982C148.256 116.662 149.474 115.526 149.905 114.049C149.511 113.503 148.869 113.148 148.144 113.148C146.943 113.148 145.97 114.121 145.97 115.322Z" fill="#F9AFAB"/>
<path d="M143.245 104.52L141.26 111.826L143.154 111.513L143.245 104.52Z" fill="#4A62D3"/>
<path d="M132.03 113.347L134.341 117.073H131.207L130.223 113.645L132.03 113.347Z" fill="#F9AFAB"/>
<path d="M106.84 103.553H125.954C126.767 103.553 127.481 104.091 127.705 104.872L131.207 117.073H138.958C139.331 117.073 139.633 117.375 139.633 117.747C139.633 118.12 139.331 118.422 138.958 118.422H131.595H129.253H108.69L105.089 105.877C104.755 104.713 105.629 103.553 106.84 103.553Z" fill="#4A5EA3"/>
<path d="M116.834 124.24C117.412 125.175 118.447 125.798 119.628 125.798C121.441 125.798 122.911 124.328 122.911 122.515C122.911 120.748 121.515 119.306 119.765 119.234C118.027 120.256 116.87 122.135 116.834 124.24Z" fill="#4A5EA3"/>
<path d="M117.463 112.552C117.853 112.518 118.129 112.028 118.079 111.459C118.028 110.889 117.671 110.455 117.281 110.489C116.891 110.523 116.615 111.013 116.665 111.583C116.715 112.153 117.072 112.587 117.463 112.552Z" fill="#89AEFF"/>
<path d="M146.472 94.6765C146.472 95.7382 147.333 96.5992 148.395 96.5992C149.161 96.5992 149.822 96.1514 150.131 95.5038C149.859 94.4544 149.3 93.504 148.523 92.7586C148.481 92.7554 148.438 92.7542 148.395 92.7542C147.333 92.7542 146.472 93.6148 146.472 94.6765Z" fill="#4A62D3"/>
<path d="M120.31 94.3499C120.617 94.5562 120.986 94.6765 121.383 94.6765C122.444 94.6765 123.305 93.8155 123.305 92.7542C123.305 92.4316 123.226 92.1275 123.085 91.8607L122.949 91.9221C121.83 92.4276 120.905 93.2799 120.31 94.3499Z" fill="#4A62D3"/>
<path d="M30.5994 147.456H11.8914V166.164H30.5994V147.456Z" fill="#D2DCFF"/>
<path d="M11.8918 147.456H1.5863V166.164H11.8918V147.456Z" fill="#AEC3FF"/>
<path d="M11.8918 150.655H1.5863V151.203H11.8918V150.655Z" fill="#86A2E2"/>
<path d="M30.5994 150.655H11.8914V151.203H30.5994V150.655Z" fill="#AEC3FF"/>
<path d="M24.6876 153.881H17.8036C17.673 153.881 17.5669 153.775 17.5669 153.644V153.631C17.5669 153.5 17.673 153.394 17.8036 153.394H24.6876C24.8183 153.394 24.9244 153.5 24.9244 153.631V153.644C24.9244 153.775 24.8183 153.881 24.6876 153.881Z" fill="#86A2E2"/>
<path d="M188.471 146.875L178.913 142.237L174.894 150.521L184.453 155.159L188.471 146.875Z" fill="#4A5EA3"/>
<path d="M178.44 143.418L167.899 144.747L169.051 153.881L179.591 152.552L178.44 143.418Z" fill="#4A5EA3"/>
<path d="M191.871 147.456H173.163V166.164H191.871V147.456Z" fill="#D2DCFF"/>
<path d="M173.163 147.456H162.857V166.164H173.163V147.456Z" fill="#AEC3FF"/>
<path d="M162.857 147.456L157.504 153.19H169.132L173.163 147.456H162.857Z" fill="#86A2E2"/>
<path d="M191.871 147.456L195.692 153.264H177.011L173.163 147.429L191.871 147.456Z" fill="#AEC3FF"/>
<path d="M177.132 143.646L176.38 147.434L178.412 143.484L177.132 143.646Z" fill="#2F3D6C"/>
<path d="M91.3597 36.0443H50.9435C49.5635 36.0443 48.4448 34.9256 48.4448 33.5456V2.49868C48.4448 1.11871 49.5635 0 50.9435 0H91.3597C92.7397 0 93.8584 1.11871 93.8584 2.49868V33.5456C93.858 34.9256 92.7393 36.0443 91.3597 36.0443Z" fill="#D2DCFF"/>
<path d="M91.3597 46.2501H50.9435C49.5635 46.2501 48.4448 45.1314 48.4448 43.7514V29.7438H93.858V43.7514C93.858 45.1314 92.7393 46.2501 91.3597 46.2501Z" fill="#6277D7"/>
<path d="M78.7452 36.0444H56.0505C55.6772 36.0444 55.3748 35.7419 55.3748 35.3686C55.3748 34.9953 55.6772 34.6929 56.0505 34.6929H78.7452C79.1185 34.6929 79.4209 34.9953 79.4209 35.3686C79.4209 35.7415 79.1185 36.0444 78.7452 36.0444Z" fill="#D2DCFF"/>
<path d="M68.0403 39.7294H56.0505C55.6772 39.7294 55.3748 39.427 55.3748 39.0537C55.3748 38.6804 55.6772 38.3779 56.0505 38.3779H68.0403C68.4136 38.3779 68.7161 38.6804 68.7161 39.0537C68.7161 39.427 68.4136 39.7294 68.0403 39.7294Z" fill="#D2DCFF"/>
<path d="M85.4159 15.3784H73.426C73.0527 15.3784 72.7503 15.0759 72.7503 14.7026C72.7503 14.3293 73.0527 14.027 73.426 14.027H85.4159C85.7892 14.027 86.0916 14.3293 86.0916 14.7026C86.0916 15.0759 85.7892 15.3784 85.4159 15.3784Z" fill="#6277D7"/>
<path d="M79.4768 19.0639H73.426C73.0527 19.0639 72.7503 18.7614 72.7503 18.3881C72.7503 18.0149 73.0527 17.7124 73.426 17.7124H79.4768C79.8501 17.7124 80.1525 18.0149 80.1525 18.3881C80.1525 18.7614 79.8497 19.0639 79.4768 19.0639Z" fill="#6277D7"/>
<path d="M61.9489 22.5673C61.9489 22.1041 62.3245 21.7284 62.7877 21.7284C59.5238 21.7284 56.8684 19.073 56.8684 15.8091C56.8684 12.5453 59.5238 9.88978 62.7877 9.88978C66.0516 9.88978 68.707 12.5453 68.707 15.8091C68.707 15.346 69.0827 14.9702 69.5458 14.9702C70.009 14.9702 70.3847 15.346 70.3847 15.8091C70.3847 11.6201 66.9767 8.21259 62.7881 8.21259C58.5991 8.21259 55.1915 11.6205 55.1915 15.8091C55.1915 19.9977 58.5995 23.4057 62.7881 23.4057C62.3242 23.4061 61.9489 23.0304 61.9489 22.5673Z" fill="#89AEFF"/>
<path d="M69.5455 14.9706C69.0823 14.9706 68.7066 15.3463 68.7066 15.8095C68.7066 19.0733 66.0512 21.7287 62.7873 21.7287C62.3242 21.7287 61.9485 22.1041 61.9485 22.5676C61.9485 23.0308 62.3242 23.4064 62.7873 23.4064C66.9763 23.4064 70.3839 19.9985 70.3839 15.8099C70.3843 15.3463 70.0086 14.9706 69.5455 14.9706Z" fill="#6277D7"/>
<path d="M103.854 29.5771V44.7596C103.854 45.5826 104.521 46.25 105.344 46.25H129.398C130.221 46.25 130.888 45.5826 130.888 44.7596V29.5771H103.854Z" fill="#89AEFF"/>
<path d="M106.503 23.3958H128.24C129.136 23.3958 129.863 24.5829 129.863 26.0468V39.0858C129.863 40.5501 129.136 41.7368 128.24 41.7368H106.503C105.607 41.7368 104.88 40.5497 104.88 39.0858V26.0468C104.881 24.5829 105.607 23.3958 106.503 23.3958Z" fill="#D2DCFF"/>
<path d="M129.399 46.25H105.345C104.522 46.25 103.855 45.5826 103.855 44.7596V29.5771L117.372 39.4697L130.89 29.5771V44.7596C130.889 45.5826 130.222 46.25 129.399 46.25Z" fill="#6277D7"/>
<path d="M123.314 29.053H111.429C111.056 29.053 110.753 28.7506 110.753 28.3773C110.753 28.004 111.056 27.7015 111.429 27.7015H123.314C123.687 27.7015 123.99 28.004 123.99 28.3773C123.99 28.7506 123.687 29.053 123.314 29.053Z" fill="#89AEFF"/>
<path d="M120.368 32.0627H114.375C114.002 32.0627 113.7 31.7603 113.7 31.3871C113.7 31.0138 114.002 30.7113 114.375 30.7113H120.368C120.741 30.7113 121.044 31.0138 121.044 31.3871C121.043 31.76 120.741 32.0627 120.368 32.0627Z" fill="#89AEFF"/>
<path d="M31.2763 45.8878C31.2763 41.635 27.5255 38.1895 21.9011 38.1895C17.2268 38.1895 15.6204 40.7689 15.6204 40.7689C15.6204 40.7689 11.2021 41.7237 11.2021 47.2139C11.2021 52.3178 11.2021 61.098 11.2021 61.098H18.4618H18.832H24.1935H30.0218V49.6639C30.4822 49.0986 31.2763 47.8409 31.2763 45.8878ZM22.5459 58.3217C22.1529 58.3217 21.7237 58.2493 21.276 58.123V61.098H14.8524V53.4444C14.8084 53.3217 14.7653 53.1903 14.7233 53.0521C11.8755 52.7802 11.9935 48.0737 13.6858 48.0737C13.7087 48.0737 13.7313 48.0757 13.7535 48.0788V48.0784C20.8671 50.3527 25.6511 46.6264 27.2163 44.0375C27.2163 45.8442 29.2158 47.6058 29.9272 47.7666C29.8219 54.2227 25.203 58.3217 22.5459 58.3217Z" fill="#311643"/>
<path d="M21.2761 58.8225V58.123C21.7238 58.2493 22.1529 58.3217 22.546 58.3217C25.203 58.3217 29.8219 54.223 29.9268 47.7661C29.2155 47.6054 27.216 45.8438 27.216 44.037C25.6507 46.6264 20.8668 50.3522 13.7531 48.078V48.0784C13.731 48.0752 13.7088 48.0733 13.6854 48.0733C11.9931 48.0733 11.8752 52.7796 14.723 53.0516C14.765 53.1897 14.8081 53.3209 14.852 53.444V58.5925L9.82104 60.9641V67.1736H26.5394V60.4044L21.2761 58.8225Z" fill="#FCBEB7"/>
<path d="M26.5398 67.1736V60.4044L21.2765 58.8225V58.123C19.788 57.703 18.0961 56.6856 16.8535 55.7363L26.5398 67.1736Z" fill="#F9AFAB"/>
<path d="M17.8455 53.2175C18.8134 53.2175 19.598 52.4329 19.598 51.4651C19.598 50.4972 18.8134 49.7126 17.8455 49.7126C16.8776 49.7126 16.093 50.4972 16.093 51.4651C16.093 52.4329 16.8776 53.2175 17.8455 53.2175Z" fill="#F49795"/>
<path d="M29.7016 50.0099C29.4795 51.1868 29.107 52.2599 28.6367 53.2148C27.71 53.1688 26.9729 52.4029 26.9729 51.4647C26.9729 50.4968 27.7575 49.7122 28.725 49.7122C29.0864 49.7126 29.4225 49.8223 29.7016 50.0099Z" fill="#F49795"/>
<path d="M26.7373 46.1352C25.4578 46.1352 24.4013 47.1078 24.2683 48.3528C23.5728 48.0254 22.9588 48.2028 22.6346 48.3517C22.5008 47.1075 21.445 46.1352 20.166 46.1352C18.7967 46.1352 17.6827 47.2491 17.6827 48.6184C17.6827 49.9877 18.7967 51.1017 20.166 51.1017C21.5048 51.1017 22.5985 50.0368 22.6468 48.7094C22.8531 48.5907 23.5082 48.2883 24.256 48.7123C24.3055 50.038 25.3993 51.1017 26.7369 51.1017C28.1062 51.1017 29.2201 49.9877 29.2201 48.6184C29.2209 47.2491 28.1066 46.1352 26.7373 46.1352ZM20.166 50.7771C18.976 50.7771 18.0077 49.8088 18.0077 48.6188C18.0077 47.4284 18.976 46.4602 20.166 46.4602C21.3563 46.4602 22.3246 47.4284 22.3246 48.6188C22.3246 49.8088 21.3563 50.7771 20.166 50.7771ZM26.7373 50.7771C25.5473 50.7771 24.579 49.8088 24.579 48.6188C24.579 47.4284 25.5473 46.4602 26.7373 46.4602C27.9276 46.4602 28.8959 47.4284 28.8959 48.6188C28.8959 49.8088 27.9276 50.7771 26.7373 50.7771Z" fill="white"/>
<path d="M26.7389 49.3041C26.5434 49.3041 26.3846 49.1453 26.3846 48.9498V48.2875C26.3846 48.0919 26.5434 47.9332 26.7389 47.9332C26.9345 47.9332 27.0932 48.0919 27.0932 48.2875V48.9498C27.0936 49.1453 26.9349 49.3041 26.7389 49.3041Z" fill="#311643"/>
<path d="M20.2741 49.3041C20.0785 49.3041 19.9198 49.1453 19.9198 48.9498V48.2875C19.9198 48.0919 20.0785 47.9332 20.2741 47.9332C20.4696 47.9332 20.6284 48.0919 20.6284 48.2875V48.9498C20.6284 49.1453 20.4696 49.3041 20.2741 49.3041Z" fill="#311643"/>
<path d="M22.8041 54.4157C22.1715 54.4157 21.7408 54.1778 21.48 53.9613C21.151 53.6882 21.0144 53.39 21.0085 53.3774C20.9717 53.2954 21.0081 53.1996 21.09 53.1624C21.1716 53.1256 21.2678 53.1621 21.3046 53.2432C21.3232 53.2832 21.7725 54.2253 23.0777 54.0745C23.1671 54.0642 23.2475 54.128 23.2578 54.2174C23.2681 54.3069 23.2043 54.3873 23.1149 54.3976C23.006 54.4098 22.9027 54.4157 22.8041 54.4157Z" fill="#311643"/>
<path d="M33.3973 157.504L34.062 160.267L41.311 162.543L40.2683 157.504H33.3973Z" fill="#FCBEB7"/>
<path d="M8.97502 157.504L9.17255 160.917L8.72127 161.083L8.42358 162.544L15.6651 160.267L15.846 157.504H8.97502Z" fill="#FCBEB7"/>
<path d="M46.9014 163.616L41.0086 161.083L41.3106 162.543L34.062 160.267V162.344C34.062 163.074 34.444 163.736 35.0445 164.109L35.668 165.891C35.7219 166.045 35.8671 166.148 36.0306 166.148C36.2428 166.148 36.4146 165.976 36.4146 165.764V164.605L41.3688 166.148H46.3804C47.1092 166.148 47.6998 165.558 47.6998 164.829C47.6998 164.301 47.3859 163.825 46.9014 163.616Z" fill="#2F3D6C"/>
<path d="M15.6714 162.324L15.6655 160.247L8.42361 162.545L8.7213 161.084L2.83603 163.634C2.35229 163.844 2.03956 164.321 2.04114 164.849C2.04312 165.577 2.63573 166.167 3.36451 166.164L8.37611 166.15L13.4989 164.537L13.5025 165.751C13.5033 165.963 13.6755 166.135 13.8877 166.134C14.0508 166.133 14.1961 166.03 14.2495 165.876L14.9256 163.924C15.3896 163.536 15.6734 162.955 15.6714 162.324Z" fill="#2F3D6C"/>
<path d="M10.0712 88.0228L7.39757 99.3448C6.62564 102.615 6.32122 105.977 6.49422 109.332L8.97547 157.504H15.8464L18.7802 107.51L33.3977 157.504H40.2687L28.1708 88.0224H10.0712V88.0228Z" fill="#6277D7"/>
<path d="M19.1625 64.1112C20.3825 64.1112 21.3583 62.9363 22.0162 61.7463H15.0586C16.1199 62.9331 17.5731 64.1112 19.1625 64.1112Z" fill="white"/>
<path d="M32.1804 64.2023C31.108 62.533 29.477 61.299 27.5789 60.721L22.9679 59.317C22.9679 59.5109 22.6306 60.6352 22.0162 61.7463C21.3583 62.9363 20.3825 64.1112 19.1625 64.1112C17.5731 64.1112 16.1199 62.9331 15.0586 61.7463C13.9818 60.5421 13.3093 59.3292 13.3093 59.3292L8.51896 61.5484C6.55826 62.4569 5.11456 64.2047 4.59321 66.3019L1.05896 80.5141L7.55781 80.5157L9.15273 74.997L10.0711 88.0228H28.1707L29.8151 74.1586L34.1264 78.0364L37.703 72.7976L32.1804 64.2023Z" fill="#FE9ECC"/>
<path d="M58.2665 58.8225L57.9909 58.7766L57.9478 58.6079C57.8666 58.2905 57.5911 58.0609 57.2641 58.0387L53.4001 57.7778L50.7122 56.6849L52.213 54.812C52.4616 54.5016 52.4267 54.0516 52.1334 53.7836L48.9677 56.2228C48.6569 56.4619 48.3992 56.7632 48.2108 57.1068L47.3407 58.6922L47.3367 58.6871L34.1265 78.0372L35.9415 79.6955C37.4418 81.0663 39.8372 80.6209 40.7445 78.802L49.3267 61.5975L52.4544 61.8951C53.1579 61.962 53.8677 61.8912 54.5442 61.687L56.1997 61.1865C56.4807 61.1014 56.6276 60.7927 56.5156 60.5211L57.6948 60.2943C57.9149 60.2519 58.0816 60.0706 58.1054 59.8473L58.1255 59.6565H58.198C58.4296 59.6565 58.6176 59.4689 58.6176 59.2369C58.6172 59.0311 58.4688 58.8561 58.2665 58.8225Z" fill="#FCBEB7"/>
<path d="M37.7031 72.798L32.6808 76.7364L34.1265 78.0368L37.7031 72.798Z" fill="#FF78BA"/>
<path d="M19.3411 65.8039C18.3348 65.8039 17.3111 65.4975 16.2977 64.8938C15.4933 64.4144 14.6937 63.7474 13.921 62.9105C12.6095 61.4906 11.8126 60.0406 11.8047 60.0259L12.0711 59.9024C12.079 59.9167 12.8537 61.3216 14.1419 62.7146C14.8948 63.5293 15.6719 64.1773 16.4513 64.6413C17.4172 65.2164 18.3894 65.5078 19.3407 65.5078C20.2397 65.5078 21.0492 65.2074 21.7471 64.6152C22.3116 64.1358 22.8065 63.4651 23.2178 62.6219C23.9232 61.1751 24.1401 59.6886 24.1425 59.674L24.4287 59.7611C24.42 59.8229 24.209 61.263 23.4834 62.7514C23.0543 63.6318 22.5345 64.3344 21.9387 64.8403C21.1862 65.4797 20.3121 65.8039 19.3411 65.8039Z" fill="white"/>
<path d="M30.1267 126.465C31.9431 126.465 33.4155 124.992 33.4155 123.176C33.4155 121.36 31.9431 119.887 30.1267 119.887C28.3103 119.887 26.8379 121.36 26.8379 123.176C26.8379 124.992 28.3103 126.465 30.1267 126.465Z" fill="#4A5EA3"/>
<path d="M12.8956 126.465C14.712 126.465 16.1844 124.992 16.1844 123.176C16.1844 121.36 14.712 119.887 12.8956 119.887C11.0793 119.887 9.60681 121.36 9.60681 123.176C9.60681 124.992 11.0793 126.465 12.8956 126.465Z" fill="#4A5EA3"/>
<path d="M31.7351 63.5736C31.4037 63.7921 31.0067 63.9192 30.58 63.9192C29.4201 63.9192 28.4791 62.9791 28.4791 61.8188C28.4791 61.569 28.5227 61.3295 28.603 61.1074C29.8286 61.6644 30.9038 62.5099 31.7351 63.5736Z" fill="#FF78BA"/>
<path d="M8.54757 63.0108C8.54757 64.1707 7.6074 65.1116 6.44674 65.1116C5.98081 65.1116 5.55051 64.96 5.20215 64.7031C5.8569 63.4577 6.8707 62.4245 8.12479 61.7468C8.39041 62.0983 8.54757 62.5362 8.54757 63.0108Z" fill="#FF78BA"/>
<path d="M15.1579 91.9748L30.2438 91.4051C30.5154 91.3948 30.7268 91.1664 30.7169 90.8953L29.9097 69.5267C29.8994 69.2551 29.671 69.0437 29.3998 69.0536L14.314 69.6232C14.0424 69.6335 13.831 69.862 13.8409 70.1332L14.6481 91.5017C14.658 91.7733 14.8864 91.9851 15.1579 91.9748Z" fill="#4A5EA3"/>
<path d="M15.1105 90.8223L30.1199 92.4433C30.3899 92.4722 30.6326 92.2771 30.6619 92.0071L32.9579 70.747C32.9871 70.4771 32.7916 70.2344 32.5216 70.2051L17.5122 68.584C17.2422 68.5547 16.9995 68.7503 16.9702 69.0203L14.6742 90.2804C14.6453 90.5508 14.8405 90.7934 15.1105 90.8223Z" fill="#4A5EA3"/>
<path d="M32.967 82.326C32.9551 82.0402 32.828 81.771 32.6147 81.5802L32.3328 81.328L32.3198 81.1946C32.2699 80.691 31.8586 80.3003 31.3535 80.2754L29.5293 80.186L30.4905 78.7019C30.555 78.6025 30.5748 78.4805 30.5455 78.3657C30.4739 78.087 30.1516 77.9588 29.9082 78.1124L24.7133 81.3902L7.55825 80.5157L1.05901 80.5141L0.275993 83.2843C-0.335612 85.4477 1.42993 87.5454 3.66575 87.3122L24.7133 85.1199L30.6983 86.0399L30.9647 85.9679C31.4235 85.844 31.7438 85.4295 31.7481 84.9545L31.7517 84.5847L31.762 84.58C32.1543 84.4046 32.4017 84.0096 32.3886 83.5801L32.3819 83.3627L32.602 83.1719C32.8459 82.9601 32.9804 82.6486 32.967 82.326Z" fill="#FCBEB7"/>
<path d="M4.19855 85.4735C4.19855 86.2561 3.78566 86.9421 3.16574 87.3261C1.53242 87.2445 0.252999 85.9216 0.15918 84.3449C0.54079 83.7162 1.23196 83.2966 2.02131 83.2966C3.22354 83.2962 4.19855 84.2709 4.19855 85.4735Z" fill="#F9AFAB"/>
<path d="M40.3312 79.4275C39.2806 80.6602 37.3884 80.8776 36.0801 79.8139C36.1976 78.7225 37.122 77.8726 38.2443 77.8726C39.2307 77.8726 40.0636 78.5285 40.3312 79.4275Z" fill="#F9AFAB"/>
<path d="M15.9331 91.9454C15.9331 91.9454 29.3346 94.7105 29.3322 94.697C29.3298 94.6836 28.9173 92.3136 28.9173 92.3136L23.0261 91.6774L15.9331 91.9454Z" fill="#4A5EA3"/>
<path d="M15.6398 69.5729L15.6841 80.9297L16.916 69.525L15.6398 69.5729Z" fill="#2F3D6C"/>
</svg>
