<svg width="196" height="151" viewBox="0 0 196 151" fill="none" xmlns="http://www.w3.org/2000/svg">
<path d="M104.732 131.619L95.1226 126.957L91.0824 135.285L100.692 139.947L104.732 131.619Z" fill="#4A5EA3"/>
<path d="M94.6261 128.139L84.0295 129.475L85.1874 138.658L95.7841 137.322L94.6261 128.139Z" fill="#4A5EA3"/>
<path d="M108.146 132.192H89.3388V151H108.146V132.192Z" fill="#D2DCFF"/>
<path d="M89.3388 132.192H78.9785V151H89.3388V132.192Z" fill="#AEC3FF"/>
<path d="M78.9785 132.192L73.5968 137.957H85.2863L89.3388 132.192H78.9785Z" fill="#86A2E2"/>
<path d="M108.146 132.192L111.988 138.032H93.2075L89.3388 132.165L108.146 132.192Z" fill="#AEC3FF"/>
<path d="M93.3289 128.362L92.5723 132.171L94.6163 128.2L93.3289 128.362Z" fill="#2F3D6C"/>
<path d="M193.534 144.603V143.151C193.534 142.702 193.17 142.337 192.721 142.337H159.017C157.316 142.337 155.938 143.716 155.938 145.417V147.893C155.938 149.594 157.316 150.972 159.017 150.972H192.721C193.17 150.972 193.534 150.608 193.534 150.159V148.706C193.534 148.257 193.17 147.893 192.721 147.893H160.255C159.571 147.893 159.017 147.339 159.017 146.655C159.017 145.971 159.571 145.416 160.255 145.416H192.721C193.17 145.417 193.534 145.053 193.534 144.603Z" fill="#86A2E2"/>
<path d="M193.207 118.699V117.246C193.207 116.798 192.843 116.433 192.393 116.433H158.689C156.988 116.433 155.61 117.812 155.61 119.512V121.989C155.61 123.69 156.988 125.068 158.689 125.068H192.393C192.843 125.068 193.207 124.704 193.207 124.255V122.802C193.207 122.353 192.843 121.989 192.393 121.989H159.927C159.243 121.989 158.689 121.435 158.689 120.751C158.689 120.066 159.243 119.512 159.927 119.512H192.393C192.843 119.512 193.207 119.148 193.207 118.699Z" fill="#D2DCFF"/>
<path d="M191.126 135.969V134.516C191.126 134.067 190.762 133.703 190.312 133.703H161.424C159.724 133.703 158.345 135.082 158.345 136.782V139.259C158.345 140.959 159.724 142.338 161.424 142.338H190.312C190.762 142.338 191.126 141.974 191.126 141.525V140.072C191.126 139.623 190.762 139.259 190.312 139.259H162.663C161.979 139.259 161.424 138.704 161.424 138.02C161.424 137.336 161.979 136.782 162.663 136.782H190.312C190.762 136.782 191.126 136.418 191.126 135.969Z" fill="#AEC3FF"/>
<path d="M195.977 110.299V108.846C195.977 108.397 195.613 108.033 195.164 108.033H166.276C164.575 108.033 163.197 109.412 163.197 111.112V113.589C163.197 115.29 164.575 116.668 166.276 116.668H195.164C195.613 116.668 195.977 116.304 195.977 115.855V114.403C195.977 113.953 195.613 113.589 195.164 113.589H167.514C166.83 113.589 166.276 113.035 166.276 112.351C166.276 111.667 166.83 111.112 167.514 111.112H195.164C195.613 111.112 195.977 110.748 195.977 110.299Z" fill="#AEC3FF"/>
<path d="M190.055 136.782V139.258H162.663C161.979 139.258 161.424 138.704 161.424 138.02C161.424 137.336 161.979 136.781 162.663 136.781H190.055V136.782Z" fill="#EFF1FA"/>
<path d="M187.636 145.417V147.894H160.243C159.559 147.894 159.005 147.339 159.005 146.655C159.005 145.971 159.559 145.417 160.243 145.417H187.636V145.417Z" fill="#EFF1FA"/>
<path d="M187.308 119.512V121.989H159.916C159.232 121.989 158.678 121.435 158.678 120.75C158.678 120.066 159.232 119.512 159.916 119.512H187.308V119.512Z" fill="#EFF1FA"/>
<path d="M194.906 111.112V113.589H167.514C166.83 113.589 166.276 113.034 166.276 112.35C166.276 111.666 166.83 111.112 167.514 111.112H194.906V111.112Z" fill="#EFF1FA"/>
<path d="M195.977 127.334V125.881C195.977 125.432 195.613 125.068 195.164 125.068H166.276C164.575 125.068 163.197 126.446 163.197 128.147V130.623C163.197 132.324 164.575 133.702 166.276 133.702H195.164C195.613 133.702 195.977 133.338 195.977 132.889V131.437C195.977 130.987 195.613 130.624 195.164 130.624H167.514C166.83 130.624 166.276 130.069 166.276 129.385C166.276 128.701 166.83 128.147 167.514 128.147H195.164C195.613 128.147 195.977 127.783 195.977 127.334Z" fill="#86A2E2"/>
<path d="M194.906 128.147V130.624H167.514C166.83 130.624 166.276 130.069 166.276 129.385C166.276 128.701 166.83 128.147 167.514 128.147H194.906V128.147Z" fill="#EFF1FA"/>
<path d="M180.572 103.709H185.535C185.779 103.709 185.969 103.923 185.94 104.166L185.52 107.673C185.496 107.879 185.322 108.033 185.115 108.033H180.992C180.785 108.033 180.611 107.879 180.586 107.673L180.166 104.166C180.137 103.924 180.327 103.709 180.572 103.709Z" fill="#D2DCFF"/>
<path d="M184.757 102.279V100.684L183.803 102.497V99.5528L183.053 101.407L182.304 99.5528V102.497L181.35 100.684V102.279L179.959 100.043L180.572 103.709H183.053H185.534L186.147 100.043L184.757 102.279Z" fill="#6277D7"/>
<path d="M124.753 96.7442H62.5504C60.8001 96.7442 59.3813 95.3255 59.3813 93.5753V34.3533C59.3813 32.6031 60.8001 31.1843 62.5504 31.1843H124.753C126.503 31.1843 127.922 32.6031 127.922 34.3533V93.5753C127.922 95.3255 126.503 96.7442 124.753 96.7442Z" fill="#6277D7"/>
<path d="M98.3794 40.6737H68.8657C68.3404 40.6737 67.9146 40.248 67.9146 39.7226C67.9146 39.1973 68.3404 38.7715 68.8657 38.7715H98.3794C98.9047 38.7715 99.3305 39.1973 99.3305 39.7226C99.3305 40.248 98.9047 40.6737 98.3794 40.6737Z" fill="#E1E9FF"/>
<path d="M88.8914 45.4192H68.8657C68.3404 45.4192 67.9146 44.9934 67.9146 44.4681C67.9146 43.9428 68.3404 43.5169 68.8657 43.5169H88.8914C89.4167 43.5169 89.8426 43.9428 89.8426 44.4681C89.8426 44.9934 89.4167 45.4192 88.8914 45.4192Z" fill="#E1E9FF"/>
<path d="M73.8682 53.1943H68.5939C68.2186 53.1943 67.9146 52.8903 67.9146 52.515C67.9146 52.1397 68.2186 51.8356 68.5939 51.8356H73.8682C74.2434 51.8356 74.5475 52.1397 74.5475 52.515C74.5475 52.8899 74.2434 53.1943 73.8682 53.1943Z" fill="#89AEFF"/>
<path d="M76.1636 75.0304V91.9834C76.1636 92.3587 75.8596 92.6628 75.4843 92.6628H72.7395C72.3642 92.6628 72.0602 92.3587 72.0602 91.9834V75.0304C72.0602 74.6551 72.3642 74.351 72.7395 74.351H75.4843C75.8596 74.351 76.1636 74.6551 76.1636 75.0304Z" fill="#89AEFF"/>
<path d="M83.6227 68.2191V91.9834C83.6227 92.3587 83.3187 92.6628 82.9434 92.6628H80.1986C79.8233 92.6628 79.5193 92.3587 79.5193 91.9834V68.2191C79.5193 67.8439 79.8233 67.5398 80.1986 67.5398H82.9434C83.3187 67.5398 83.6227 67.8443 83.6227 68.2191Z" fill="#89AEFF"/>
<path d="M92.6057 75.0304V91.9834C92.6057 92.3587 92.3017 92.6628 91.9264 92.6628H89.1816C88.8063 92.6628 88.5023 92.3587 88.5023 91.9834V75.0304C88.5023 74.6551 88.8063 74.351 89.1816 74.351H91.9264C92.3017 74.351 92.6057 74.6551 92.6057 75.0304Z" fill="#89AEFF"/>
<path d="M100.064 68.2191V91.9834C100.064 92.3587 99.7603 92.6628 99.385 92.6628H96.6402C96.2649 92.6628 95.9609 92.3587 95.9609 91.9834V68.2191C95.9609 67.8439 96.2649 67.5398 96.6402 67.5398H99.385C99.7603 67.5398 100.064 67.8443 100.064 68.2191Z" fill="#89AEFF"/>
<path d="M109.047 79.9947V91.9834C109.047 92.3587 108.743 92.6628 108.368 92.6628H105.623C105.248 92.6628 104.944 92.3587 104.944 91.9834V79.9947C104.944 79.6194 105.248 79.3153 105.623 79.3153H108.368C108.743 79.3157 109.047 79.6198 109.047 79.9947Z" fill="#89AEFF"/>
<path d="M116.506 75.0304V91.9834C116.506 92.3587 116.202 92.6628 115.827 92.6628H113.082C112.707 92.6628 112.403 92.3587 112.403 91.9834V75.0304C112.403 74.6551 112.707 74.351 113.082 74.351H115.827C116.202 74.351 116.506 74.6551 116.506 75.0304Z" fill="#89AEFF"/>
<path d="M76.1636 81.2916V91.983C76.1636 92.3583 75.8596 92.6623 75.4843 92.6623H72.7395C72.3642 92.6623 72.0602 92.3583 72.0602 91.983V81.2916C72.0602 80.9164 72.3642 80.6123 72.7395 80.6123H75.4843C75.8596 80.6127 76.1636 80.9168 76.1636 81.2916Z" fill="#D2DCFF"/>
<path d="M83.6227 76.8097V91.9834C83.6227 92.3587 83.3187 92.6628 82.9434 92.6628H80.1986C79.8233 92.6628 79.5193 92.3587 79.5193 91.9834V76.8097C79.5193 76.4344 79.8233 76.1304 80.1986 76.1304H82.9434C83.3187 76.1304 83.6227 76.4344 83.6227 76.8097Z" fill="#D2DCFF"/>
<path d="M92.6057 81.2916V91.983C92.6057 92.3583 92.3017 92.6623 91.9264 92.6623H89.1816C88.8063 92.6623 88.5023 92.3583 88.5023 91.983V81.2916C88.5023 80.9164 88.8063 80.6123 89.1816 80.6123H91.9264C92.3017 80.6127 92.6057 80.9168 92.6057 81.2916Z" fill="#D2DCFF"/>
<path d="M100.064 76.8097V91.9834C100.064 92.3587 99.7603 92.6628 99.385 92.6628H96.6402C96.2649 92.6628 95.9609 92.3587 95.9609 91.9834V76.8097C95.9609 76.4344 96.2649 76.1304 96.6402 76.1304H99.385C99.7603 76.1304 100.064 76.4344 100.064 76.8097Z" fill="#D2DCFF"/>
<path d="M109.047 84.5586V91.9831C109.047 92.3584 108.743 92.6623 108.368 92.6623H105.623C105.248 92.6623 104.944 92.3584 104.944 91.9831V84.5586C104.944 84.1833 105.248 83.8793 105.623 83.8793H108.368C108.743 83.8797 109.047 84.1837 109.047 84.5586Z" fill="#D2DCFF"/>
<path d="M116.506 81.2916V91.983C116.506 92.3583 116.202 92.6623 115.827 92.6623H113.082C112.707 92.6623 112.403 92.3583 112.403 91.983V81.2916C112.403 80.9164 112.707 80.6123 113.082 80.6123H115.827C116.202 80.6127 116.506 80.9168 116.506 81.2916Z" fill="#D2DCFF"/>
<path d="M47.4694 0H54.1799L56.5028 2.80005H71.0318C72.0144 2.80005 72.8107 3.59638 72.8107 4.57896L73.073 19.9637C73.073 20.9462 72.2766 21.7426 71.2941 21.7426H47.4694C46.4868 21.7426 45.6904 20.9462 45.6904 19.9637V1.7789C45.6904 0.796321 46.4868 0 47.4694 0Z" fill="#6277D7"/>
<path d="M49.7598 5.4024H68.8491C69.6362 5.4024 70.2742 6.07381 70.2742 6.90158V14.2739C70.2742 15.1017 69.6362 15.7731 68.8491 15.7731H49.7598C48.9726 15.7731 48.3342 15.1021 48.3342 14.2739V6.90158C48.3342 6.07381 48.9726 5.4024 49.7598 5.4024Z" fill="#D2DCFF"/>
<path d="M47.4694 8.19855H71.2941C72.2766 8.19855 73.073 9.07485 73.073 10.1561V19.7845C73.073 20.8658 72.2766 21.7422 71.2941 21.7422H47.4694C46.4868 21.7422 45.6904 20.8658 45.6904 19.7845V10.1561C45.6904 9.07485 46.4868 8.19855 47.4694 8.19855Z" fill="#89AEFF"/>
<path d="M18.7824 105.914C18.7824 106.764 18.3191 107.505 17.6318 107.9L17.4293 107.484C16.8642 106.323 16.8554 104.974 17.397 103.81C18.2117 104.16 18.7824 104.971 18.7824 105.914Z" fill="#F9AFAB"/>
<path d="M43.3568 85.22L42.6758 83.8924C42.8621 82.8 42.9413 81.6121 42.8788 80.3386C42.8649 80.0508 42.8434 79.7591 42.8143 79.463C41.394 79.5887 37.2261 79.7555 34.1605 77.8107C34.3866 79.6162 33.7116 81.6172 32.5929 83.3038C32.4572 82.9783 31.9689 81.9714 31.1276 81.9714C29.4446 81.9714 29.1899 84.6608 30.1311 85.9419C29.4812 86.4246 28.8007 86.7888 28.1266 86.9913C28.1266 86.9913 28.1238 86.9886 28.1194 86.9842V94.7266H34.6461V91.3531C35.5236 91.6751 36.3028 91.8601 36.8524 91.8601C38.4952 91.8601 40.9853 89.6566 42.1931 85.8811H42.9528C43.2032 85.8811 43.4061 85.678 43.4061 85.4277C43.4069 85.3553 43.3898 85.2841 43.3568 85.22Z" fill="#FCBEB7"/>
<path d="M30.1312 85.9419C29.19 84.6608 29.4447 81.9713 31.1277 81.9713C31.9686 81.9713 32.4569 82.9782 32.593 83.3038C33.7117 81.6168 34.3866 79.6162 34.1606 77.8106C37.2265 79.7559 41.3941 79.5891 42.8144 79.4629C42.8434 79.759 42.8649 80.0512 42.8789 80.3385C43.0018 80.2219 43.2904 79.8975 43.3111 79.4088C43.3118 79.4088 43.3123 79.4088 43.3123 79.4088C43.3123 79.3949 43.3123 79.381 43.3119 79.367C43.3119 79.3627 43.3123 79.3587 43.3123 79.3543C43.3123 79.3519 43.3119 79.3495 43.3119 79.3467C43.2744 76.5594 40.7227 71.8264 34.4961 71.8264C27.8982 71.8264 26.6641 76.122 26.6641 76.122C26.6641 76.122 24.3929 77.3661 24.3929 79.8753C24.3929 83.1716 27.9467 86.8095 28.1195 86.9846C28.1238 86.989 28.1266 86.9918 28.1266 86.9918C28.8008 86.7888 29.4813 86.4246 30.1312 85.9419Z" fill="#311643"/>
<path d="M34.6465 94.7265V91.353C32.8346 90.6876 30.6036 89.436 29.1092 88.014L34.6465 94.7265Z" fill="#F9AFAB"/>
<path d="M35.7254 86.6849C36.7025 86.6849 37.4947 85.8927 37.4947 84.9155C37.4947 83.9383 36.7025 83.1461 35.7254 83.1461C34.7482 83.1461 33.956 83.9383 33.956 84.9155C33.956 85.8927 34.7482 86.6849 35.7254 86.6849Z" fill="#F49795"/>
<path d="M39.508 87.6508C39.1523 87.6508 38.9091 87.5158 38.7615 87.3932C38.5776 87.2404 38.5004 87.076 38.492 87.0577C38.455 86.9757 38.4916 86.879 38.5736 86.842C38.6552 86.805 38.7515 86.8413 38.7885 86.9229C38.7985 86.9443 39.017 87.3889 39.6434 87.3165C39.7325 87.3061 39.8137 87.3701 39.824 87.4597C39.8344 87.5492 39.7703 87.63 39.6808 87.6404C39.6207 87.6475 39.563 87.6508 39.508 87.6508Z" fill="#311643"/>
<path d="M40.5061 82.7478C40.3099 82.7478 40.1507 82.5886 40.1507 82.3924V81.7286C40.1507 81.5324 40.3099 81.3732 40.5061 81.3732C40.7023 81.3732 40.8615 81.5324 40.8615 81.7286V82.3924C40.8615 82.5886 40.7023 82.7478 40.5061 82.7478Z" fill="#311643"/>
<path d="M42.9039 81.8973H41.8067V79.8744C41.8067 79.7845 41.7338 79.7116 41.6439 79.7116C41.554 79.7116 41.4811 79.7845 41.4811 79.8744V84.2465C41.4811 84.3364 41.554 84.4093 41.6439 84.4093C41.7338 84.4093 41.8067 84.3364 41.8067 84.2465V82.2232H42.9039C42.9938 82.2232 43.0666 82.1504 43.0666 82.0605C43.0666 81.9705 42.9938 81.8973 42.9039 81.8973Z" fill="white"/>
<path d="M53.6916 108.072L35.3266 115.225L29.9043 122.443C29.0686 123.555 27.889 124.338 26.5698 124.686L34.6047 130.219L49.9802 122.129L49.347 141.772H56.2446L62.0096 115.17C63.0578 110.334 58.3021 106.276 53.6916 108.072Z" fill="#6277D7"/>
<path d="M49.347 144.545V149.419C49.347 149.987 49.8078 150.448 50.3761 150.448H64.1991C64.3308 150.448 64.4371 150.341 64.4371 150.21V149.312C64.4371 148.878 64.1844 148.485 63.7904 148.304L55.5815 144.545H49.347Z" fill="#2F3D6C"/>
<path d="M49.347 141.772V144.545H55.5815L56.2445 141.772H49.347Z" fill="#FCBEB7"/>
<path d="M43.0798 125.76L34.6047 130.219L28.2833 125.76H43.0798Z" fill="#4A5EA3"/>
<path d="M61.8404 111.883C61.3163 112.233 60.6863 112.438 60.0089 112.438C58.1858 112.438 56.7082 110.96 56.7082 109.136C56.7082 108.634 56.8204 108.158 57.021 107.732C59.244 108.127 61.1197 109.741 61.8404 111.883Z" fill="#4A5EA3"/>
<path d="M19.6897 99.4982L17.5005 103.601C16.8558 104.809 16.8291 106.253 17.4288 107.484L17.6171 107.871L19.3192 100.814C19.4262 100.369 19.5504 99.9304 19.6897 99.4982Z" fill="#FCBEB7"/>
<path d="M26.5698 124.686C26.6128 124.675 26.6557 124.663 26.6983 124.651C27.9655 124.287 29.0957 123.519 29.9043 122.443L35.3266 115.225L34.9008 100.552L40.3661 101.742L42.5338 94.9025L28.1234 89.2188C24.0988 91.4629 21.0942 95.1444 19.6901 99.4978C19.5508 99.93 19.4267 100.369 19.3196 100.814L17.6175 107.87L13.4428 125.177L25.1582 124.888C25.6397 124.876 26.1129 124.807 26.5698 124.686Z" fill="#89AEFF"/>
<path d="M34.9749 103.108L27.8206 98.6048L34.9008 100.554L34.9749 103.108Z" fill="#4A62D3"/>
<path d="M15.5787 144.048L13.007 141.539C12.5052 141.049 11.724 140.99 11.1541 141.398L0.131579 149.301C-0.0100974 149.402 -0.0423112 149.599 0.0591705 149.74L0.5431 150.416C0.798993 150.773 1.21406 150.981 1.65342 150.973L6.07962 150.887L15.5787 144.048Z" fill="#2F3D6C"/>
<path d="M15.5787 150.887H6.07959L15.5787 144.048V150.887Z" fill="#FCBEB7"/>
<path d="M46.9083 138.79L26.6983 124.651C26.6557 124.663 26.6127 124.675 26.5697 124.686C26.1129 124.807 25.6397 124.876 25.1577 124.888L13.4424 125.178C13.4424 130.214 16.4673 134.758 21.1136 136.701L33.0116 141.676L15.5787 144.047V150.886H43.0969C49.5985 150.887 52.2354 142.517 46.9083 138.79Z" fill="#6277D7"/>
<path d="M47.9167 148.851C46.9835 148.268 46.3627 147.232 46.3627 146.05C46.3627 144.246 47.8089 142.781 49.6045 142.749C50.0817 144.914 49.4266 147.242 47.9167 148.851Z" fill="#4A5EA3"/>
<path d="M71.8982 80.0078L67.7459 78.6284C67.4995 78.5464 67.2305 78.5695 67.0017 78.6912L64.434 80.0595L63.8529 80.1861C63.636 80.2334 63.457 80.385 63.3746 80.5907L62.3641 83.1194L45.1473 95.8409L42.5338 94.9033L40.3661 101.743L45.4187 102.786C46.5923 103.029 47.8089 102.662 48.6534 101.812L64.816 85.5383L67.7836 83.7936C68.0571 83.6328 68.2298 83.3435 68.2417 83.0267L68.2537 82.7119L68.4459 82.5264C68.6484 82.3314 68.7515 82.0549 68.7268 81.7751L68.7038 81.5136C68.9198 81.3027 69.0197 80.9999 68.9724 80.7018L68.9306 80.4392L71.7299 80.7667C71.9054 80.7874 72.0725 80.6875 72.1378 80.5231C72.2206 80.3138 72.1111 80.0786 71.8982 80.0078Z" fill="#FCBEB7"/>
<path d="M48.9427 101.519L48.653 101.811C47.8085 102.661 46.5919 103.028 45.4183 102.785L45.1815 102.737V102.736C45.3184 101.66 46.2365 100.829 47.3493 100.829C47.9776 100.829 48.5443 101.095 48.9427 101.519Z" fill="#F9AFAB"/>
<path d="M135.604 142.267L134.936 145.044L127.649 147.332L128.697 142.267H135.604Z" fill="#FCBEB7"/>
<path d="M160.156 142.267L159.958 145.697L160.412 145.865L160.711 147.334L153.431 145.044L153.249 142.267H160.156Z" fill="#FCBEB7"/>
<path d="M122.028 148.411L127.952 145.865L127.649 147.333L134.936 145.044V147.133C134.936 147.867 134.552 148.533 133.948 148.907L133.321 150.698C133.267 150.853 133.121 150.957 132.957 150.957C132.744 150.957 132.571 150.784 132.571 150.571V149.405L127.59 150.957H122.552C121.819 150.957 121.226 150.363 121.226 149.631C121.226 149.1 121.541 148.621 122.028 148.411Z" fill="#2F3D6C"/>
<path d="M153.424 147.112L153.43 145.024L160.711 147.334L160.411 145.865L166.328 148.429C166.814 148.64 167.129 149.12 167.127 149.65C167.125 150.382 166.529 150.974 165.797 150.972L160.758 150.957L155.608 149.337L155.605 150.557C155.604 150.77 155.431 150.942 155.218 150.942C155.054 150.941 154.908 150.837 154.854 150.682L154.174 148.72C153.708 148.331 153.422 147.747 153.424 147.112Z" fill="#2F3D6C"/>
<path d="M138.995 33.8523V45.3472H144.854H150.244H150.617H157.915C157.915 45.3472 157.915 36.5203 157.915 31.3893C157.915 25.8699 153.473 24.91 153.473 24.91C153.473 24.91 151.858 22.3168 147.159 22.3168C141.505 22.3168 137.734 25.7807 137.734 30.0564C137.734 32.02 138.532 33.2844 138.995 33.8523ZM139.091 31.9448C139.806 31.7833 141.816 30.0122 141.816 28.1959C143.39 30.799 148.199 34.5447 155.35 32.2584V32.2589C155.373 32.2557 155.395 32.2536 155.418 32.2536C157.12 32.2536 157.238 36.9851 154.375 37.2585C154.333 37.3974 154.29 37.5295 154.246 37.6529V45.3472H147.788V42.3564C147.338 42.4834 146.906 42.5563 146.511 42.5563C143.84 42.5563 139.196 38.4357 139.091 31.9448Z" fill="#311643"/>
<path d="M147.787 42.3564C147.337 42.4834 146.906 42.5563 146.511 42.5563C143.84 42.5563 139.196 38.4357 139.091 31.9445C139.806 31.7829 141.816 30.0119 141.816 28.1956C143.389 30.7987 148.199 34.5443 155.35 32.258V32.2584C155.373 32.2552 155.395 32.2533 155.418 32.2533C157.12 32.2533 157.238 36.9848 154.375 37.2582C154.333 37.397 154.29 37.5292 154.246 37.6525V42.8284L159.303 45.192V51.4548H142.496V44.6496L147.788 43.0374L147.787 42.3564Z" fill="#FCBEB7"/>
<path d="M142.496 51.4556V44.6504L147.787 43.0382V42.3568C149.284 41.9346 150.985 40.9119 152.234 39.9576L142.496 51.4556Z" fill="#F9AFAB"/>
<path d="M151.237 37.4249C152.21 37.4249 152.998 36.6361 152.998 35.663C152.998 34.69 152.21 33.9012 151.237 33.9012C150.264 33.9012 149.475 34.69 149.475 35.663C149.475 36.6361 150.264 37.4249 151.237 37.4249Z" fill="#F49795"/>
<path d="M139.317 34.2005C139.54 35.3837 139.915 36.4626 140.388 37.4225C141.319 37.3767 142.06 36.6063 142.06 35.6631C142.06 34.6901 141.272 33.9017 140.299 33.9017C139.936 33.9017 139.598 34.0115 139.317 34.2005Z" fill="#F49795"/>
<path d="M139.801 32.8016C139.801 34.1782 140.921 35.2981 142.297 35.2981C143.642 35.2981 144.741 34.2287 144.791 32.8959C145.543 32.4697 146.202 32.7738 146.409 32.8932C146.458 34.2276 147.557 35.2981 148.903 35.2981C150.28 35.2981 151.4 34.1782 151.4 32.8016C151.4 31.4251 150.28 30.3051 148.903 30.3051C147.618 30.3051 146.556 31.2826 146.422 32.5334C146.096 32.3837 145.479 32.2054 144.779 32.5345C144.646 31.2829 143.583 30.3051 142.297 30.3051C140.921 30.3051 139.801 31.4251 139.801 32.8016ZM146.734 32.8016C146.734 31.605 147.707 30.6319 148.904 30.6319C150.1 30.6319 151.074 31.6054 151.074 32.8016C151.074 33.9979 150.1 34.9717 148.904 34.9717C147.707 34.9717 146.734 33.9979 146.734 32.8016ZM140.127 32.8016C140.127 31.605 141.101 30.6319 142.297 30.6319C143.494 30.6319 144.468 31.6054 144.468 32.8016C144.468 33.9979 143.494 34.9717 142.297 34.9717C141.101 34.9717 140.127 33.9979 140.127 32.8016Z" fill="white"/>
<path d="M142.295 33.4906C142.492 33.4906 142.652 33.331 142.652 33.1344V32.469C142.652 32.2724 142.492 32.1128 142.295 32.1128C142.099 32.1128 141.939 32.2724 141.939 32.469V33.1344C141.939 33.3314 142.099 33.4906 142.295 33.4906Z" fill="#311643"/>
<path d="M148.795 33.4906C148.992 33.4906 149.151 33.331 149.151 33.1344V32.469C149.151 32.2724 148.992 32.1128 148.795 32.1128C148.598 32.1128 148.439 32.2724 148.439 32.469V33.1344C148.439 33.3314 148.598 33.4906 148.795 33.4906Z" fill="#311643"/>
<path d="M146.252 38.6295C146.888 38.6295 147.321 38.3903 147.583 38.1726C147.914 37.898 148.051 37.5984 148.057 37.5857C148.094 37.5033 148.057 37.4065 147.975 37.3695C147.893 37.3325 147.797 37.3691 147.759 37.4507C147.74 37.4913 147.289 38.4381 145.977 38.2865C145.887 38.2761 145.806 38.3401 145.796 38.4297C145.785 38.5192 145.849 38.6004 145.939 38.6108C146.048 38.6239 146.153 38.6295 146.252 38.6295Z" fill="#311643"/>
<path d="M159.055 72.4157L161.743 83.7976C162.519 87.0848 162.825 90.4651 162.651 93.8379L160.156 142.266H153.249L150.299 92.0064L135.604 142.266H128.697L140.859 72.4153H159.055V72.4157Z" fill="#6277D7"/>
<path d="M149.915 48.3766C148.688 48.3766 147.707 47.1954 147.046 45.9991H154.04C152.974 47.1922 151.512 48.3766 149.915 48.3766Z" fill="white"/>
<path d="M136.827 48.468C137.906 46.7898 139.545 45.5493 141.453 44.9682L146.089 43.5567C146.089 43.7517 146.428 44.8819 147.046 45.999C147.707 47.1953 148.688 48.3765 149.915 48.3765C151.512 48.3765 152.973 47.1921 154.04 45.999C155.123 44.7884 155.799 43.569 155.799 43.569L160.03 45.5294C161.949 46.4185 163.324 48.1751 163.726 50.2513L166.546 64.8117H160.811L159.978 59.3206L159.055 72.4157H140.859L139.206 58.4777L134.871 62.3762L131.276 57.1098L136.827 48.468Z" fill="#FE9ECC"/>
<path d="M131.276 57.1099L136.325 61.0689L134.871 62.3763L131.276 57.1099Z" fill="#FF78BA"/>
<path d="M138.892 111.062C140.718 111.062 142.198 109.582 142.198 107.756C142.198 105.93 140.718 104.45 138.892 104.45C137.066 104.45 135.586 105.93 135.586 107.756C135.586 109.582 137.066 111.062 138.892 111.062Z" fill="#4A5EA3"/>
<path d="M156.215 111.062C158.041 111.062 159.521 109.582 159.521 107.756C159.521 105.93 158.041 104.45 156.215 104.45C154.389 104.45 152.909 105.93 152.909 107.756C152.909 109.582 154.389 111.062 156.215 111.062Z" fill="#4A5EA3"/>
<path d="M111.527 43.4194L117.493 41.3751C118.087 41.1849 118.735 41.2561 119.273 41.5705L121.59 42.9235L134.871 62.3766L133.046 64.0437C131.538 65.4218 129.13 64.9737 128.218 63.1454L119.476 45.6225L117.305 45.8888C116.977 45.9289 116.644 45.8677 116.353 45.7133L115.586 45.3077C115.228 45.1183 114.954 44.8012 114.819 44.4195L114.661 43.9765L111.75 44.3705C111.513 44.4067 111.284 44.2655 111.21 44.0371C111.127 43.7784 111.269 43.5018 111.527 43.4194Z" fill="#FCBEB7"/>
<path d="M158.397 85.1312L159.736 83.9269L160.811 64.8118H166.546L162.964 84.5736L162.968 89.0608C162.934 89.6701 162.668 90.2431 162.224 90.6614L161.668 91.1855C160.988 91.8262 160.079 92.1672 159.146 92.131L158.35 92.1004C158.067 92.0897 157.9 91.7792 158.046 91.5373L159.202 89.6234L159.104 86.0501L158.528 88.1335C158.431 88.4849 158.078 88.7006 157.721 88.6269V86.6506C157.72 86.0712 157.966 85.5185 158.397 85.1312Z" fill="#FCBEB7"/>
<path d="M160.31 47.3868C160.31 48.5409 161.246 49.4769 162.4 49.4769C162.776 49.4769 163.128 49.3778 163.432 49.205C162.94 47.8838 162.035 46.7536 160.851 45.9839C160.515 46.3548 160.31 46.8467 160.31 47.3868Z" fill="#FF78BA"/>
<path d="M159.055 72.4157H140.859L140.602 73.893L159.17 72.9029L159.055 72.4157Z" fill="#4A5EA3"/>
<path d="M128.633 63.7743C129.69 65.0131 131.592 65.2321 132.907 64.1627C132.789 63.0655 131.86 62.2111 130.731 62.2111C129.74 62.2115 128.902 62.8705 128.633 63.7743Z" fill="#F9AFAB"/>
</svg>
