<svg width="188" height="100" viewBox="0 0 188 100" fill="none" xmlns="http://www.w3.org/2000/svg">
<path d="M70.807 20.869V96.5981C70.807 98.4358 69.3167 99.9261 67.479 99.9261H3.32803C1.49034 99.9261 0 98.4358 0 96.5981V3.54544C0 1.70775 1.49034 0.217407 3.32803 0.217407H50.1564L70.807 20.869Z" fill="#FE9ECC"/>
<path d="M70.8071 20.869H53.4835C51.6459 20.869 50.1555 19.3786 50.1555 17.5409V0.217407L70.8071 20.869Z" fill="#FFD9E8"/>
<path d="M59.2063 70.6955H39.4993C38.6784 70.6955 38.0133 70.0304 38.0133 69.2095V64.5686C38.0133 63.7477 38.6784 63.0827 39.4993 63.0827H59.2063C60.0272 63.0827 60.6923 63.7477 60.6923 64.5686V69.2095C60.6914 70.0295 60.0264 70.6955 59.2063 70.6955Z" fill="#FFD9E8"/>
<path d="M52.1194 82.1177H39.4993C38.6784 82.1177 38.0133 81.4525 38.0133 80.6316V75.9909C38.0133 75.17 38.6784 74.5049 39.4993 74.5049H52.1194C52.9403 74.5049 53.6054 75.17 53.6054 75.9909V80.6316C53.6054 81.4525 52.9403 82.1177 52.1194 82.1177Z" fill="#FFD9E8"/>
<path d="M35.2416 14.2503H9.10574C8.28484 14.2503 7.61975 13.5852 7.61975 12.7643C7.61975 11.9434 8.28484 11.2783 9.10574 11.2783H35.2416C36.0625 11.2783 36.7276 11.9434 36.7276 12.7643C36.7276 13.5852 36.0625 14.2503 35.2416 14.2503Z" fill="#FFD9E8"/>
<path d="M22.2838 20.8689H9.10574C8.28484 20.8689 7.61975 20.2038 7.61975 19.3829C7.61975 18.562 8.28484 17.897 9.10574 17.897H22.2838C23.1047 17.897 23.7698 18.562 23.7698 19.3829C23.7698 20.2038 23.1038 20.8689 22.2838 20.8689Z" fill="#FFD9E8"/>
<path d="M23.0638 72.3965C24.5193 71.4903 25.49 69.8763 25.49 68.0395C25.49 65.2103 23.1883 62.9086 20.3591 62.9086C17.5299 62.9086 15.2282 65.2103 15.2282 68.0395C15.2282 69.8763 16.1988 71.4903 17.6543 72.3965C13.6229 73.509 10.6675 77.0399 10.6675 81.215C10.6675 81.8104 11.1498 82.2918 11.7443 82.2918C12.3389 82.2918 12.8212 81.8104 12.8212 81.215C12.8212 77.3376 16.2023 74.1837 20.3591 74.1837C24.5158 74.1837 27.897 77.3376 27.897 81.215C27.897 81.8104 28.3792 82.2918 28.9738 82.2918C29.5684 82.2918 30.0507 81.8104 30.0507 81.215C30.0515 77.0399 27.0952 73.509 23.0638 72.3965ZM20.3591 65.0623C22.0009 65.0623 23.3363 66.3977 23.3363 68.0395C23.3363 69.6813 22.0009 71.0166 20.3591 71.0166C18.7173 71.0166 17.3819 69.6813 17.3819 68.0395C17.3827 66.3977 18.7181 65.0623 20.3591 65.0623Z" fill="#FFD9E8"/>
<path d="M182.307 86.2542H84.4756C81.7229 86.2542 79.4915 84.0228 79.4915 81.27V28.3605C79.4915 25.6077 81.7229 23.3763 84.4756 23.3763H182.307C185.059 23.3763 187.291 25.6077 187.291 28.3605V81.27C187.291 84.0228 185.059 86.2542 182.307 86.2542Z" fill="#6277D7"/>
<path d="M175.265 42.9287H139.381C138.791 42.9287 138.313 42.4505 138.313 41.8603C138.313 41.27 138.791 40.7918 139.381 40.7918H175.265C175.855 40.7918 176.333 41.27 176.333 41.8603C176.333 42.4505 175.855 42.9287 175.265 42.9287Z" fill="#D2DCFF"/>
<path d="M158.339 48.7554H139.381C138.791 48.7554 138.313 48.2772 138.313 47.6869C138.313 47.0967 138.791 46.6185 139.381 46.6185H158.339C158.929 46.6185 159.407 47.0967 159.407 47.6869C159.407 48.2772 158.929 48.7554 158.339 48.7554Z" fill="#D2DCFF"/>
<path d="M151.591 70.2825H139.381C138.791 70.2825 138.313 69.8044 138.313 69.2142C138.313 68.6239 138.791 68.1457 139.381 68.1457H151.591C152.181 68.1457 152.659 68.6239 152.659 69.2142C152.659 69.8044 152.181 70.2825 151.591 70.2825Z" fill="#89AEFF"/>
<path d="M101.966 60.1026V68.8047C101.966 69.3949 101.488 69.8731 100.898 69.8731H96.5809C95.9907 69.8731 95.5125 69.3949 95.5125 68.8047V60.1026C95.5125 59.5123 95.9907 59.0341 96.5809 59.0341H100.898C101.488 59.0341 101.966 59.5123 101.966 60.1026Z" fill="#D2DCFF"/>
<path d="M113.698 51.3016V68.8041C113.698 69.3943 113.22 69.8726 112.629 69.8726H108.312C107.722 69.8726 107.244 69.3943 107.244 68.8041V51.3016C107.244 50.7113 107.722 50.2331 108.312 50.2331H112.629C113.219 50.2331 113.698 50.7119 113.698 51.3016Z" fill="#D2DCFF"/>
<path d="M125.429 43.9971V68.8047C125.429 69.395 124.951 69.8732 124.36 69.8732H120.043C119.453 69.8732 118.975 69.395 118.975 68.8047V43.9971C118.975 43.4069 119.453 42.9287 120.043 42.9287H124.36C124.951 42.9287 125.429 43.4069 125.429 43.9971Z" fill="#D2DCFF"/>
</svg>
